<?xml version="1.0" encoding="UTF-8"?>
<svg width="22px" height="22px" viewBox="0 0 22 22" version="1.1" xmlns="http://www.w3.org/2000/svg" xmlns:xlink="http://www.w3.org/1999/xlink">
    <title>icon_Apple</title>
    <g id="UI" stroke="none" stroke-width="1" fill="none" fill-rule="evenodd">
        <g id="" transform="translate(-128.000000, -43.000000)" fill="#282828" fill-rule="nonzero">
            <g id="icon_Apple" transform="translate(128.000000, 43.000000)">
                <rect id="" opacity="0" x="0" y="0" width="22" height="22"></rect>
                <path d="M17.004625,11.689541 C16.977125,8.903125 19.2768125,7.5673125 19.37925,7.500625 C18.08675,5.6093125 16.07375,5.3508125 15.3566875,5.3205625 C13.6434375,5.1473125 12.0140625,6.329125 11.144375,6.329125 C10.2774375,6.329125 8.9354375,5.346 7.514375,5.372125 C5.647125,5.399625 3.9249375,6.4576875 2.9638125,8.130375 C1.0236875,11.497041 2.46675,16.484166 4.3580625,19.214916 C5.2820625,20.551416 6.384125,22.0522285 7.830625,21.9986035 C9.2235,21.942916 9.7508125,21.097291 11.4345,21.097291 C13.1181875,21.097291 13.591875,21.9986035 15.0665625,21.9711035 C16.5653125,21.942916 17.5154375,20.609166 18.43325,19.268541 C19.4940625,17.7182285 19.9313125,16.2167285 19.95675,16.1397285 C19.92375,16.1246035 17.0335,15.0177285 17.004625,11.689541 L17.004625,11.689541 Z M14.2346875,3.513125 C15.002625,2.5815625 15.521,1.2890625 15.379375,0 C14.2731875,0.045375 12.9325625,0.737 12.1391875,1.6658125 C11.4269375,2.490125 10.8040625,3.806 10.971125,5.069625 C12.205875,5.165875 13.4660625,4.4419375 14.2346875,3.513125 Z" id=""></path>
            </g>
        </g>
    </g>
</svg>