<svg width="320" height="440" viewBox="0 0 320 440" fill="none" xmlns="http://www.w3.org/2000/svg">
<path fill-rule="evenodd" clip-rule="evenodd" d="M0 16C0 7.16344 7.16344 0 16 0H304C312.837 0 320 7.16344 320 16V423C320 431.837 312.837 439 304 439H16C7.16345 439 0 431.837 0 423L0 16Z" fill="url(#paint0_linear_124_47)"/>
<path d="M101.28 84.016C101.109 83.2053 100.731 82.5973 100.144 82.192C99.568 81.7867 98.88 81.584 98.08 81.584C97.3973 81.584 96.8107 81.712 96.32 81.968C95.84 82.224 95.44 82.5707 95.12 83.008C94.8107 83.4347 94.5813 83.9253 94.432 84.48C94.2827 85.0347 94.208 85.6107 94.208 86.208C94.208 86.8587 94.2827 87.4773 94.432 88.064C94.5813 88.64 94.8107 89.1467 95.12 89.584C95.44 90.0107 95.8453 90.352 96.336 90.608C96.8267 90.864 97.4133 90.992 98.096 90.992C98.5973 90.992 99.04 90.912 99.424 90.752C99.8187 90.5813 100.155 90.352 100.432 90.064C100.72 89.7653 100.944 89.4133 101.104 89.008C101.264 88.6027 101.36 88.1653 101.392 87.696H102.912C102.763 89.136 102.267 90.256 101.424 91.056C100.581 91.856 99.4293 92.256 97.968 92.256C97.0827 92.256 96.3093 92.1067 95.648 91.808C94.9867 91.4987 94.4373 91.0773 94 90.544C93.5627 90.0107 93.232 89.3813 93.008 88.656C92.7947 87.9307 92.688 87.152 92.688 86.32C92.688 85.488 92.8053 84.7093 93.04 83.984C93.2747 83.248 93.616 82.608 94.064 82.064C94.5227 81.52 95.088 81.0933 95.76 80.784C96.4427 80.464 97.2213 80.304 98.096 80.304C98.6933 80.304 99.2587 80.384 99.792 80.544C100.325 80.704 100.8 80.9387 101.216 81.248C101.632 81.5573 101.979 81.9467 102.256 82.416C102.533 82.8747 102.715 83.408 102.8 84.016H101.28ZM105.563 87.872C105.563 88.3733 105.627 88.8213 105.755 89.216C105.894 89.6 106.08 89.9253 106.315 90.192C106.55 90.448 106.822 90.6453 107.131 90.784C107.451 90.9227 107.787 90.992 108.139 90.992C108.491 90.992 108.822 90.9227 109.131 90.784C109.451 90.6453 109.728 90.448 109.963 90.192C110.198 89.9253 110.379 89.6 110.507 89.216C110.646 88.8213 110.715 88.3733 110.715 87.872C110.715 87.3707 110.646 86.928 110.507 86.544C110.379 86.1493 110.198 85.8187 109.963 85.552C109.728 85.2853 109.451 85.0827 109.131 84.944C108.822 84.8053 108.491 84.736 108.139 84.736C107.787 84.736 107.451 84.8053 107.131 84.944C106.822 85.0827 106.55 85.2853 106.315 85.552C106.08 85.8187 105.894 86.1493 105.755 86.544C105.627 86.928 105.563 87.3707 105.563 87.872ZM104.123 87.872C104.123 87.264 104.208 86.6987 104.379 86.176C104.55 85.6427 104.806 85.184 105.147 84.8C105.488 84.4053 105.91 84.096 106.411 83.872C106.912 83.648 107.488 83.536 108.139 83.536C108.8 83.536 109.376 83.648 109.867 83.872C110.368 84.096 110.79 84.4053 111.131 84.8C111.472 85.184 111.728 85.6427 111.899 86.176C112.07 86.6987 112.155 87.264 112.155 87.872C112.155 88.48 112.07 89.0453 111.899 89.568C111.728 90.0907 111.472 90.5493 111.131 90.944C110.79 91.328 110.368 91.632 109.867 91.856C109.376 92.0693 108.8 92.176 108.139 92.176C107.488 92.176 106.912 92.0693 106.411 91.856C105.91 91.632 105.488 91.328 105.147 90.944C104.806 90.5493 104.55 90.0907 104.379 89.568C104.208 89.0453 104.123 88.48 104.123 87.872ZM120.606 92H119.326V90.688H119.294C119.006 91.2 118.638 91.5787 118.19 91.824C117.742 92.0587 117.214 92.176 116.606 92.176C116.062 92.176 115.609 92.1067 115.246 91.968C114.884 91.8187 114.59 91.6107 114.366 91.344C114.142 91.0773 113.982 90.7627 113.886 90.4C113.801 90.0267 113.758 89.616 113.758 89.168V83.728H115.118V89.328C115.118 89.84 115.268 90.2453 115.566 90.544C115.865 90.8427 116.276 90.992 116.798 90.992C117.214 90.992 117.572 90.928 117.87 90.8C118.18 90.672 118.436 90.4907 118.638 90.256C118.841 90.0213 118.99 89.7493 119.086 89.44C119.193 89.12 119.246 88.7733 119.246 88.4V83.728H120.606V92ZM122.697 83.728H124.057V84.848H124.089C124.313 84.3893 124.665 84.0587 125.145 83.856C125.625 83.6427 126.153 83.536 126.729 83.536C127.369 83.536 127.924 83.6533 128.393 83.888C128.873 84.1227 129.268 84.4427 129.577 84.848C129.897 85.2427 130.137 85.7013 130.297 86.224C130.457 86.7467 130.537 87.3013 130.537 87.888C130.537 88.4747 130.457 89.0293 130.297 89.552C130.148 90.0747 129.913 90.5333 129.593 90.928C129.284 91.312 128.889 91.616 128.409 91.84C127.94 92.064 127.39 92.176 126.761 92.176C126.558 92.176 126.329 92.1547 126.073 92.112C125.828 92.0693 125.582 92 125.337 91.904C125.092 91.808 124.857 91.68 124.633 91.52C124.42 91.3493 124.238 91.1413 124.089 90.896H124.057V95.152H122.697V83.728ZM129.097 87.792C129.097 87.408 129.044 87.0347 128.937 86.672C128.841 86.2987 128.686 85.968 128.473 85.68C128.27 85.392 128.004 85.1627 127.673 84.992C127.353 84.8213 126.974 84.736 126.537 84.736C126.078 84.736 125.689 84.8267 125.369 85.008C125.049 85.1893 124.788 85.4293 124.585 85.728C124.382 86.016 124.233 86.3467 124.137 86.72C124.052 87.0933 124.009 87.472 124.009 87.856C124.009 88.2613 124.057 88.656 124.153 89.04C124.249 89.4133 124.398 89.744 124.601 90.032C124.814 90.32 125.086 90.5547 125.417 90.736C125.748 90.9067 126.148 90.992 126.617 90.992C127.086 90.992 127.476 90.9013 127.785 90.72C128.105 90.5387 128.361 90.2987 128.553 90C128.745 89.7013 128.884 89.36 128.969 88.976C129.054 88.592 129.097 88.1973 129.097 87.792ZM137.877 87.072C137.856 86.752 137.781 86.448 137.653 86.16C137.536 85.872 137.371 85.6267 137.157 85.424C136.955 85.2107 136.709 85.0453 136.421 84.928C136.144 84.8 135.835 84.736 135.493 84.736C135.141 84.736 134.821 84.8 134.533 84.928C134.256 85.0453 134.016 85.2107 133.813 85.424C133.611 85.6373 133.451 85.888 133.333 86.176C133.216 86.4533 133.147 86.752 133.125 87.072H137.877ZM139.189 89.376C139.008 90.304 138.608 91.0027 137.989 91.472C137.371 91.9413 136.592 92.176 135.653 92.176C134.992 92.176 134.416 92.0693 133.925 91.856C133.445 91.6427 133.04 91.344 132.709 90.96C132.379 90.576 132.128 90.1173 131.957 89.584C131.797 89.0507 131.707 88.4693 131.685 87.84C131.685 87.2107 131.781 86.6347 131.973 86.112C132.165 85.5893 132.432 85.136 132.773 84.752C133.125 84.368 133.536 84.0693 134.005 83.856C134.485 83.6427 135.008 83.536 135.573 83.536C136.309 83.536 136.917 83.6907 137.397 84C137.888 84.2987 138.277 84.6827 138.565 85.152C138.864 85.6213 139.067 86.1333 139.173 86.688C139.291 87.2427 139.339 87.7707 139.317 88.272H133.125C133.115 88.6347 133.157 88.9813 133.253 89.312C133.349 89.632 133.504 89.92 133.717 90.176C133.931 90.4213 134.203 90.6187 134.533 90.768C134.864 90.9173 135.253 90.992 135.701 90.992C136.277 90.992 136.747 90.8587 137.109 90.592C137.483 90.3253 137.728 89.92 137.845 89.376H139.189ZM140.679 83.728H141.959V85.472H141.991C142.322 84.8 142.727 84.304 143.207 83.984C143.687 83.664 144.295 83.5147 145.031 83.536V84.976C144.487 84.976 144.023 85.0507 143.639 85.2C143.255 85.3493 142.946 85.568 142.711 85.856C142.476 86.144 142.306 86.496 142.199 86.912C142.092 87.3173 142.039 87.7867 142.039 88.32V92H140.679V83.728ZM147.943 83.728H149.591V84.928H147.943V90.064C147.943 90.224 147.954 90.352 147.975 90.448C148.007 90.544 148.061 90.6187 148.135 90.672C148.21 90.7253 148.311 90.7627 148.439 90.784C148.578 90.7947 148.754 90.8 148.967 90.8H149.591V92H148.551C148.199 92 147.895 91.9787 147.639 91.936C147.394 91.8827 147.191 91.792 147.031 91.664C146.882 91.536 146.77 91.3547 146.695 91.12C146.621 90.8853 146.583 90.576 146.583 90.192V84.928H145.175V83.728H146.583V81.248H147.943V83.728ZM157.299 86.048H160.275C161.139 86.0587 161.769 85.8827 162.163 85.52C162.569 85.1573 162.771 84.6347 162.771 83.952C162.771 83.2693 162.569 82.752 162.163 82.4C161.769 82.0373 161.139 81.856 160.275 81.856H157.299V86.048ZM155.779 80.576H160.787C161.939 80.576 162.809 80.8747 163.395 81.472C163.993 82.0587 164.291 82.8853 164.291 83.952C164.291 85.0187 163.993 85.8507 163.395 86.448C162.809 87.0453 161.939 87.3387 160.787 87.328H157.299V92H155.779V80.576ZM166.01 80.576H167.37V92H166.01V80.576ZM176.325 92H175.045V90.688H175.013C174.725 91.2 174.357 91.5787 173.909 91.824C173.461 92.0587 172.933 92.176 172.325 92.176C171.781 92.176 171.328 92.1067 170.965 91.968C170.602 91.8187 170.309 91.6107 170.085 91.344C169.861 91.0773 169.701 90.7627 169.605 90.4C169.52 90.0267 169.477 89.616 169.477 89.168V83.728H170.837V89.328C170.837 89.84 170.986 90.2453 171.285 90.544C171.584 90.8427 171.994 90.992 172.517 90.992C172.933 90.992 173.29 90.928 173.589 90.8C173.898 90.672 174.154 90.4907 174.357 90.256C174.56 90.0213 174.709 89.7493 174.805 89.44C174.912 89.12 174.965 88.7733 174.965 88.4V83.728H176.325V92ZM179.2 89.392C179.21 89.6907 179.28 89.9467 179.408 90.16C179.536 90.3627 179.701 90.528 179.904 90.656C180.117 90.7733 180.352 90.8587 180.608 90.912C180.874 90.9653 181.146 90.992 181.424 90.992C181.637 90.992 181.861 90.976 182.096 90.944C182.33 90.912 182.544 90.8533 182.736 90.768C182.938 90.6827 183.104 90.56 183.232 90.4C183.36 90.2293 183.424 90.016 183.424 89.76C183.424 89.408 183.29 89.1413 183.024 88.96C182.757 88.7787 182.421 88.6347 182.016 88.528C181.621 88.4107 181.189 88.3093 180.72 88.224C180.25 88.128 179.813 88 179.408 87.84C179.013 87.6693 178.682 87.4347 178.416 87.136C178.149 86.8373 178.016 86.4213 178.016 85.888C178.016 85.472 178.106 85.1147 178.288 84.816C178.48 84.5173 178.72 84.2773 179.008 84.096C179.306 83.904 179.637 83.7653 180 83.68C180.373 83.584 180.741 83.536 181.104 83.536C181.573 83.536 182.005 83.5787 182.4 83.664C182.794 83.7387 183.141 83.8773 183.44 84.08C183.749 84.272 183.994 84.5387 184.176 84.88C184.357 85.2107 184.464 85.6267 184.496 86.128H183.136C183.114 85.8613 183.045 85.6427 182.928 85.472C182.81 85.2907 182.661 85.1467 182.48 85.04C182.298 84.9333 182.096 84.8587 181.872 84.816C181.658 84.7627 181.44 84.736 181.216 84.736C181.013 84.736 180.805 84.752 180.592 84.784C180.389 84.816 180.202 84.8747 180.032 84.96C179.861 85.0347 179.722 85.1413 179.616 85.28C179.509 85.408 179.456 85.5787 179.456 85.792C179.456 86.0267 179.536 86.224 179.696 86.384C179.866 86.5333 180.08 86.6613 180.336 86.768C180.592 86.864 180.88 86.9493 181.2 87.024C181.52 87.088 181.84 87.1573 182.16 87.232C182.501 87.3067 182.832 87.3973 183.152 87.504C183.482 87.6107 183.77 87.7547 184.016 87.936C184.272 88.1067 184.474 88.3253 184.624 88.592C184.784 88.8587 184.864 89.1893 184.864 89.584C184.864 90.0853 184.757 90.5013 184.544 90.832C184.341 91.1627 184.069 91.4293 183.728 91.632C183.397 91.8347 183.018 91.9733 182.592 92.048C182.176 92.1333 181.76 92.176 181.344 92.176C180.885 92.176 180.448 92.128 180.032 92.032C179.616 91.936 179.248 91.7813 178.928 91.568C178.608 91.344 178.352 91.056 178.16 90.704C177.968 90.3413 177.861 89.904 177.84 89.392H179.2ZM197.653 83.92C197.568 83.0987 197.269 82.5067 196.757 82.144C196.256 81.7707 195.61 81.584 194.821 81.584C194.501 81.584 194.186 81.616 193.877 81.68C193.568 81.744 193.29 81.8507 193.045 82C192.81 82.1493 192.618 82.352 192.469 82.608C192.33 82.8533 192.261 83.1627 192.261 83.536C192.261 83.888 192.362 84.176 192.565 84.4C192.778 84.6133 193.056 84.7893 193.397 84.928C193.749 85.0667 194.144 85.184 194.581 85.28C195.018 85.3653 195.461 85.4613 195.909 85.568C196.368 85.6747 196.816 85.8027 197.253 85.952C197.69 86.0907 198.08 86.2827 198.421 86.528C198.773 86.7733 199.05 87.0827 199.253 87.456C199.466 87.8293 199.573 88.2987 199.573 88.864C199.573 89.472 199.434 89.9947 199.157 90.432C198.89 90.8587 198.544 91.2107 198.117 91.488C197.69 91.7547 197.21 91.9467 196.677 92.064C196.154 92.192 195.632 92.256 195.109 92.256C194.469 92.256 193.861 92.176 193.285 92.016C192.72 91.856 192.218 91.616 191.781 91.296C191.354 90.9653 191.013 90.5493 190.757 90.048C190.512 89.536 190.389 88.9333 190.389 88.24H191.829C191.829 88.72 191.92 89.136 192.101 89.488C192.293 89.8293 192.538 90.112 192.837 90.336C193.146 90.56 193.504 90.7253 193.909 90.832C194.314 90.9387 194.73 90.992 195.157 90.992C195.498 90.992 195.84 90.96 196.181 90.896C196.533 90.832 196.848 90.7253 197.125 90.576C197.402 90.416 197.626 90.2027 197.797 89.936C197.968 89.6693 198.053 89.328 198.053 88.912C198.053 88.5173 197.946 88.1973 197.733 87.952C197.53 87.7067 197.253 87.5093 196.901 87.36C196.56 87.2 196.17 87.072 195.733 86.976C195.296 86.88 194.848 86.784 194.389 86.688C193.941 86.5813 193.498 86.464 193.061 86.336C192.624 86.1973 192.229 86.0213 191.877 85.808C191.536 85.584 191.258 85.3013 191.045 84.96C190.842 84.608 190.741 84.1707 190.741 83.648C190.741 83.072 190.858 82.576 191.093 82.16C191.328 81.7333 191.637 81.3867 192.021 81.12C192.416 80.8427 192.858 80.64 193.349 80.512C193.85 80.3733 194.362 80.304 194.885 80.304C195.472 80.304 196.016 80.3733 196.517 80.512C197.018 80.6507 197.456 80.8693 197.829 81.168C198.213 81.4667 198.512 81.8453 198.725 82.304C198.949 82.752 199.072 83.2907 199.093 83.92H197.653ZM206.94 87.072C206.919 86.752 206.844 86.448 206.716 86.16C206.599 85.872 206.433 85.6267 206.22 85.424C206.017 85.2107 205.772 85.0453 205.484 84.928C205.207 84.8 204.897 84.736 204.556 84.736C204.204 84.736 203.884 84.8 203.596 84.928C203.319 85.0453 203.079 85.2107 202.876 85.424C202.673 85.6373 202.513 85.888 202.396 86.176C202.279 86.4533 202.209 86.752 202.188 87.072H206.94ZM208.252 89.376C208.071 90.304 207.671 91.0027 207.052 91.472C206.433 91.9413 205.655 92.176 204.716 92.176C204.055 92.176 203.479 92.0693 202.988 91.856C202.508 91.6427 202.103 91.344 201.772 90.96C201.441 90.576 201.191 90.1173 201.02 89.584C200.86 89.0507 200.769 88.4693 200.748 87.84C200.748 87.2107 200.844 86.6347 201.036 86.112C201.228 85.5893 201.495 85.136 201.836 84.752C202.188 84.368 202.599 84.0693 203.068 83.856C203.548 83.6427 204.071 83.536 204.636 83.536C205.372 83.536 205.98 83.6907 206.46 84C206.951 84.2987 207.34 84.6827 207.628 85.152C207.927 85.6213 208.129 86.1333 208.236 86.688C208.353 87.2427 208.401 87.7707 208.38 88.272H202.188C202.177 88.6347 202.22 88.9813 202.316 89.312C202.412 89.632 202.567 89.92 202.78 90.176C202.993 90.4213 203.265 90.6187 203.596 90.768C203.927 90.9173 204.316 90.992 204.764 90.992C205.34 90.992 205.809 90.8587 206.172 90.592C206.545 90.3253 206.791 89.92 206.908 89.376H208.252ZM209.742 83.728H211.022V85.472H211.054C211.384 84.8 211.79 84.304 212.27 83.984C212.75 83.664 213.358 83.5147 214.094 83.536V84.976C213.55 84.976 213.086 85.0507 212.702 85.2C212.318 85.3493 212.008 85.568 211.774 85.856C211.539 86.144 211.368 86.496 211.262 86.912C211.155 87.3173 211.102 87.7867 211.102 88.32V92H209.742V83.728ZM218.846 92H217.39L214.318 83.728H215.838L218.158 90.624H218.19L220.446 83.728H221.87L218.846 92ZM224.558 82.24H223.198V80.576H224.558V82.24ZM223.198 83.728H224.558V92H223.198V83.728ZM232.281 86.384C232.174 85.8613 231.95 85.456 231.609 85.168C231.267 84.88 230.809 84.736 230.233 84.736C229.742 84.736 229.331 84.8267 229.001 85.008C228.67 85.1893 228.403 85.4293 228.201 85.728C228.009 86.0267 227.87 86.3733 227.785 86.768C227.699 87.152 227.657 87.552 227.657 87.968C227.657 88.352 227.699 88.7253 227.785 89.088C227.881 89.4507 228.025 89.776 228.217 90.064C228.409 90.3413 228.659 90.5653 228.969 90.736C229.278 90.9067 229.646 90.992 230.073 90.992C230.745 90.992 231.267 90.816 231.641 90.464C232.025 90.112 232.259 89.616 232.345 88.976H233.737C233.587 90 233.203 90.7893 232.585 91.344C231.977 91.8987 231.145 92.176 230.089 92.176C229.459 92.176 228.899 92.0747 228.409 91.872C227.929 91.6693 227.523 91.3813 227.193 91.008C226.873 90.6347 226.627 90.192 226.457 89.68C226.297 89.1573 226.217 88.5867 226.217 87.968C226.217 87.3493 226.297 86.7733 226.457 86.24C226.617 85.696 226.857 85.2267 227.177 84.832C227.507 84.4267 227.918 84.112 228.409 83.888C228.899 83.6533 229.47 83.536 230.121 83.536C230.59 83.536 231.027 83.5947 231.433 83.712C231.849 83.8187 232.211 83.9893 232.521 84.224C232.841 84.4587 233.102 84.7573 233.305 85.12C233.507 85.472 233.635 85.8933 233.689 86.384H232.281ZM241.002 87.072C240.981 86.752 240.906 86.448 240.778 86.16C240.661 85.872 240.496 85.6267 240.282 85.424C240.08 85.2107 239.834 85.0453 239.546 84.928C239.269 84.8 238.96 84.736 238.618 84.736C238.266 84.736 237.946 84.8 237.658 84.928C237.381 85.0453 237.141 85.2107 236.938 85.424C236.736 85.6373 236.576 85.888 236.458 86.176C236.341 86.4533 236.272 86.752 236.25 87.072H241.002ZM242.314 89.376C242.133 90.304 241.733 91.0027 241.114 91.472C240.496 91.9413 239.717 92.176 238.778 92.176C238.117 92.176 237.541 92.0693 237.05 91.856C236.57 91.6427 236.165 91.344 235.834 90.96C235.504 90.576 235.253 90.1173 235.082 89.584C234.922 89.0507 234.832 88.4693 234.81 87.84C234.81 87.2107 234.906 86.6347 235.098 86.112C235.29 85.5893 235.557 85.136 235.898 84.752C236.25 84.368 236.661 84.0693 237.13 83.856C237.61 83.6427 238.133 83.536 238.698 83.536C239.434 83.536 240.042 83.6907 240.522 84C241.013 84.2987 241.402 84.6827 241.69 85.152C241.989 85.6213 242.192 86.1333 242.298 86.688C242.416 87.2427 242.464 87.7707 242.442 88.272H236.25C236.24 88.6347 236.282 88.9813 236.378 89.312C236.474 89.632 236.629 89.92 236.842 90.176C237.056 90.4213 237.328 90.6187 237.658 90.768C237.989 90.9173 238.378 90.992 238.826 90.992C239.402 90.992 239.872 90.8587 240.234 90.592C240.608 90.3253 240.853 89.92 240.97 89.376H242.314Z" fill="#FFC1A1"/>
<g clip-path="url(#clip0_124_47)">
<rect x="41" y="40" width="238" height="155" rx="18" fill="white"/>
<g filter="url(#filter0_d_124_47)">
<rect x="37.9528" y="37.9481" width="250.189" height="137.052" rx="18" fill="url(#paint1_linear_124_47)"/>
</g>
<mask id="mask0_124_47" style="mask-type:alpha" maskUnits="userSpaceOnUse" x="37" y="37" width="252" height="138">
<rect x="37.9528" y="37.9481" width="250.189" height="137.052" rx="13" fill="url(#paint2_linear_124_47)"/>
</mask>
<g mask="url(#mask0_124_47)">
<ellipse cx="119.816" cy="46.6863" rx="116.816" ry="66.6863" fill="url(#paint3_linear_124_47)"/>
</g>
<g filter="url(#filter1_d_124_47)">
<ellipse cx="92.2217" cy="44.3868" rx="89.2217" ry="64.3868" fill="#A05905" fill-opacity="0.22"/>
</g>
<path fill-rule="evenodd" clip-rule="evenodd" d="M142.468 67.3939C142.779 64.3306 145.358 62 148.437 62L172.313 62C175.953 62 178.755 65.216 178.256 68.8223L175.808 86.5193C175.397 89.487 172.86 91.697 169.864 91.697H146.64C143.087 91.697 140.312 88.6261 140.671 85.0909L142.468 67.3939Z" fill="#504435"/>
<mask id="mask1_124_47" style="mask-type:luminance" maskUnits="userSpaceOnUse" x="140" y="62" width="40" height="30">
<path fill-rule="evenodd" clip-rule="evenodd" d="M143.015 62L179.2 62L175.091 91.697H140L143.015 62Z" fill="white"/>
</mask>
<g mask="url(#mask1_124_47)">
</g>
<path fill-rule="evenodd" clip-rule="evenodd" d="M150.498 72.1835C149.885 72.0243 149.311 72.5463 149.411 73.1711L150.954 82.8045C151.227 84.506 152.695 85.7576 154.418 85.7576H164.782C166.505 85.7576 167.973 84.506 168.246 82.8045L169.789 73.1711C169.889 72.5463 169.315 72.0243 168.703 72.1835L163.979 73.4113C163.59 73.5125 163.182 73.3324 162.995 72.9766L160.376 68.0044C160.047 67.38 159.153 67.38 158.824 68.0044L156.205 72.9766C156.018 73.3324 155.61 73.5125 155.221 73.4113L150.498 72.1835ZM157.52 75.7879C157.175 75.3444 156.615 75.3444 156.269 75.7879C155.924 76.2313 155.924 76.9504 156.269 77.3938L159.099 81.0278C159.445 81.4712 160.005 81.4712 160.35 81.0278L163.181 77.3938C163.526 76.9504 163.526 76.2313 163.181 75.7879L163.134 75.7325C162.787 75.3452 162.26 75.3637 161.93 75.7879L159.725 78.619L157.52 75.7879Z" fill="url(#paint4_linear_124_47)"/>
<mask id="mask2_124_47" style="mask-type:luminance" maskUnits="userSpaceOnUse" x="149" y="67" width="21" height="19">
<path fill-rule="evenodd" clip-rule="evenodd" d="M150.498 72.1835C149.885 72.0243 149.311 72.5463 149.411 73.1711L150.954 82.8045C151.227 84.506 152.695 85.7576 154.418 85.7576H164.782C166.505 85.7576 167.973 84.506 168.246 82.8045L169.789 73.1711C169.889 72.5463 169.315 72.0243 168.703 72.1835L163.979 73.4113C163.59 73.5125 163.182 73.3324 162.995 72.9766L160.376 68.0044C160.047 67.38 159.153 67.38 158.824 68.0044L156.205 72.9766C156.018 73.3324 155.61 73.5125 155.221 73.4113L150.498 72.1835ZM157.52 75.7879C157.175 75.3444 156.615 75.3444 156.269 75.7879C155.924 76.2313 155.924 76.9504 156.269 77.3938L159.099 81.0278C159.445 81.4712 160.005 81.4712 160.35 81.0278L163.181 77.3938C163.526 76.9504 163.526 76.2313 163.181 75.7879L163.134 75.7325C162.787 75.3452 162.26 75.3637 161.93 75.7879L159.725 78.619L157.52 75.7879Z" fill="white"/>
</mask>
<g mask="url(#mask2_124_47)">
</g>
</g>
<path fill-rule="evenodd" clip-rule="evenodd" d="M0 423.5C0 432.337 7.16344 439.5 16 439.5H304C312.837 439.5 320 432.337 320 423.5V167.685C320 159.853 314.34 153.193 306.585 152.097C280.594 148.423 220.58 141 160 141C99.42 141 39.4063 148.423 13.4146 152.097C5.65969 153.193 0 159.853 0 167.685L0 423.5Z" fill="#FFF1D5"/>
<defs>
<filter id="filter0_d_124_47" x="17.9528" y="13.9481" width="290.189" height="177.052" filterUnits="userSpaceOnUse" color-interpolation-filters="sRGB">
<feFlood flood-opacity="0" result="BackgroundImageFix"/>
<feColorMatrix in="SourceAlpha" type="matrix" values="0 0 0 0 0 0 0 0 0 0 0 0 0 0 0 0 0 0 127 0" result="hardAlpha"/>
<feOffset dy="-4"/>
<feGaussianBlur stdDeviation="10"/>
<feColorMatrix type="matrix" values="0 0 0 0 0.534697 0 0 0 0 0.612925 0 0 0 0 0.722288 0 0 0 0.5 0"/>
<feBlend mode="normal" in2="BackgroundImageFix" result="effect1_dropShadow_124_47"/>
<feBlend mode="normal" in="SourceGraphic" in2="effect1_dropShadow_124_47" result="shape"/>
</filter>
<filter id="filter1_d_124_47" x="-17" y="-32" width="218.443" height="168.774" filterUnits="userSpaceOnUse" color-interpolation-filters="sRGB">
<feFlood flood-opacity="0" result="BackgroundImageFix"/>
<feColorMatrix in="SourceAlpha" type="matrix" values="0 0 0 0 0 0 0 0 0 0 0 0 0 0 0 0 0 0 127 0" result="hardAlpha"/>
<feOffset dy="8"/>
<feGaussianBlur stdDeviation="10"/>
<feColorMatrix type="matrix" values="0 0 0 0 0 0 0 0 0 0 0 0 0 0 0 0 0 0 1 0"/>
<feBlend mode="normal" in2="BackgroundImageFix" result="effect1_dropShadow_124_47"/>
<feBlend mode="normal" in="SourceGraphic" in2="effect1_dropShadow_124_47" result="shape"/>
</filter>
<linearGradient id="paint0_linear_124_47" x1="160" y1="51.5" x2="160" y2="313" gradientUnits="userSpaceOnUse">
<stop stop-color="white"/>
<stop offset="1" stop-color="#C5C5C5"/>
</linearGradient>
<linearGradient id="paint1_linear_124_47" x1="44.952" y1="103.06" x2="185.113" y2="206.753" gradientUnits="userSpaceOnUse">
<stop stop-color="#643D23"/>
<stop offset="1" stop-color="#211710"/>
</linearGradient>
<linearGradient id="paint2_linear_124_47" x1="44.952" y1="103.06" x2="185.113" y2="206.753" gradientUnits="userSpaceOnUse">
<stop stop-color="#643D23"/>
<stop offset="1" stop-color="#211710"/>
</linearGradient>
<linearGradient id="paint3_linear_124_47" x1="127.634" y1="47.1462" x2="204.907" y2="105.54" gradientUnits="userSpaceOnUse">
<stop stop-color="#544835" stop-opacity="0.01"/>
<stop offset="1" stop-color="#130B02"/>
</linearGradient>
<linearGradient id="paint4_linear_124_47" x1="142.917" y1="79.0107" x2="155.847" y2="93.7403" gradientUnits="userSpaceOnUse">
<stop stop-color="#FFFCF7"/>
<stop offset="1" stop-color="#FFBA97"/>
</linearGradient>
<clipPath id="clip0_124_47">
<rect x="41" y="40" width="238" height="155" rx="18" fill="white"/>
</clipPath>
</defs>
</svg>
