<svg
    viewBox="0 0 1024 1024"
    version="1.1"
    xmlns="http://www.w3.org/2000/svg"
    p-id="3157"
    width="16"
    height="16"
>
    <path
        d="M7.1 227C2.8 239.4 0 252.6 0 266.4v478.4l347.4-301L7.1 227zM1020.7 239.2L694.6 437.3 1024 722.8V266.4c0-9.4-1.3-18.4-3.3-27.2zM991.7 184.4c-22.3-24.3-54-39.8-89.5-39.8H121.9c-30.9 0-58.9 11.9-80.4 30.9l470.9 300 479.3-291.1z"
        fill="#ffffff"
        p-id="3158"
        data-spm-anchor-id="a313x.7781069.0.i3"
        className="selected"
    ></path>
    <path
        d="M528.1 538.5c-0.2 0.2-0.5 0.2-0.7 0.3-1.6 0.9-3.3 1.5-5 2.2-0.8 0.3-1.6 0.8-2.5 1-2.4 0.6-4.7 0.9-7.2 1-0.2 0-0.4 0.1-0.7 0.1-0.2 0-0.3-0.1-0.6-0.1-2.5-0.1-5-0.4-7.5-1.1-0.9-0.2-1.7-0.7-2.5-1-1.8-0.7-3.6-1.4-5.3-2.4-0.2-0.2-0.5-0.2-0.8-0.4l-93.4-59.5L20.3 809.3c-1.9 1.7-4.2 2.7-6.4 3.7 20.2 39.3 60.7 66.4 107.9 66.4h780.3c52.9 0 97.6-34 114.4-81.2L639 471.1l-110.9 67.4z"
        fill="#ffffff"
        p-id="3159"
        data-spm-anchor-id="a313x.7781069.0.i4"
        className="selected"
    ></path>
</svg>