<?xml version="1.0" encoding="UTF-8"?>
<svg width="22px" height="22px" viewBox="0 0 22 22" version="1.1" xmlns="http://www.w3.org/2000/svg" xmlns:xlink="http://www.w3.org/1999/xlink">
    <title>icon_Facebook</title>
    <g id="UI" stroke="none" stroke-width="1" fill="none" fill-rule="evenodd">
        <g id="" transform="translate(-88.000000, -44.000000)" fill="#325B9F" fill-rule="nonzero">
            <g id="icon_Facebook" transform="translate(88.000000, 44.000000)">
                <path d="M12.6887967,21.7920544 L12.6887967,14.076643 L15.2334025,14.076643 L15.6213693,11.0155137 L12.6887967,11.0155137 L12.6887967,9.05821166 C12.6887967,8.5575065 12.7914938,8.19335728 12.9854772,7.9430047 C13.1908714,7.69265212 13.5674274,7.56747582 14.1493776,7.56747582 L15.7240664,7.56747582 L15.7240664,4.82497707 C15.1877593,4.74531943 14.4232365,4.69980078 13.4419087,4.69980078 C12.2894191,4.69980078 11.3651452,5.05257032 10.6690871,5.75810942 C9.97302905,6.46364852 9.63070539,7.46505886 9.63070539,8.75096077 L9.63070539,11.004134 L7.0746888,11.004134 L7.0746888,14.0652633 L9.61929461,14.0652633 L9.61929461,21.8375731 C4.19917012,21.166173 0,16.5574095 0,10.969995 C0,4.91601437 4.91804979,0 11,0 C17.0819502,0 22,4.90463471 22,10.969995 C22,16.4549925 17.9605809,20.9840984 12.6887967,21.7920544 Z M11.1312241,22 L10.9885892,22 L11.1312241,22 Z" id=""></path>
            </g>
        </g>
    </g>
</svg>