<svg width="137" height="44" viewBox="0 0 137 44" fill="none" xmlns="http://www.w3.org/2000/svg">
<g clip-path="url(#clip0_48_30)">
<path fill-rule="evenodd" clip-rule="evenodd" d="M1.74913 25.5938C1.96282 22.445 4.57933 20 7.73536 20H130.079C133.553 20 136.3 22.9406 136.065 26.4062L135.251 38.4062C135.037 41.555 132.421 44 129.265 44H6.921C3.44738 44 0.699562 41.0594 0.934756 37.5938L1.74913 25.5938Z" fill="#FFE5CF"/>
<path d="M14.54 30.312C14.508 30.096 14.436 29.9 14.324 29.724C14.212 29.54 14.072 29.38 13.904 29.244C13.736 29.108 13.544 29.004 13.328 28.932C13.12 28.852 12.9 28.812 12.668 28.812C12.244 28.812 11.884 28.896 11.588 29.064C11.292 29.224 11.052 29.444 10.868 29.724C10.684 29.996 10.548 30.308 10.46 30.66C10.38 31.012 10.34 31.376 10.34 31.752C10.34 32.112 10.38 32.464 10.46 32.808C10.548 33.144 10.684 33.448 10.868 33.72C11.052 33.992 11.292 34.212 11.588 34.38C11.884 34.54 12.244 34.62 12.668 34.62C13.244 34.62 13.692 34.444 14.012 34.092C14.34 33.74 14.54 33.276 14.612 32.7H16.436C16.388 33.236 16.264 33.72 16.064 34.152C15.864 34.584 15.6 34.952 15.272 35.256C14.944 35.56 14.56 35.792 14.12 35.952C13.68 36.112 13.196 36.192 12.668 36.192C12.012 36.192 11.42 36.08 10.892 35.856C10.372 35.624 9.932 35.308 9.572 34.908C9.212 34.508 8.936 34.04 8.744 33.504C8.552 32.96 8.456 32.376 8.456 31.752C8.456 31.112 8.552 30.52 8.744 29.976C8.936 29.424 9.212 28.944 9.572 28.536C9.932 28.128 10.372 27.808 10.892 27.576C11.42 27.344 12.012 27.228 12.668 27.228C13.14 27.228 13.584 27.296 14 27.432C14.424 27.568 14.8 27.768 15.128 28.032C15.464 28.288 15.74 28.608 15.956 28.992C16.172 29.376 16.308 29.816 16.364 30.312H14.54ZM19.0545 32.904C19.0545 33.152 19.0785 33.396 19.1265 33.636C19.1745 33.868 19.2545 34.08 19.3665 34.272C19.4865 34.456 19.6425 34.604 19.8345 34.716C20.0265 34.828 20.2665 34.884 20.5545 34.884C20.8425 34.884 21.0825 34.828 21.2745 34.716C21.4745 34.604 21.6305 34.456 21.7425 34.272C21.8625 34.08 21.9465 33.868 21.9945 33.636C22.0425 33.396 22.0665 33.152 22.0665 32.904C22.0665 32.656 22.0425 32.412 21.9945 32.172C21.9465 31.932 21.8625 31.72 21.7425 31.536C21.6305 31.352 21.4745 31.204 21.2745 31.092C21.0825 30.972 20.8425 30.912 20.5545 30.912C20.2665 30.912 20.0265 30.972 19.8345 31.092C19.6425 31.204 19.4865 31.352 19.3665 31.536C19.2545 31.72 19.1745 31.932 19.1265 32.172C19.0785 32.412 19.0545 32.656 19.0545 32.904ZM17.3505 32.904C17.3505 32.408 17.4265 31.96 17.5785 31.56C17.7305 31.152 17.9465 30.808 18.2265 30.528C18.5065 30.24 18.8425 30.02 19.2345 29.868C19.6265 29.708 20.0665 29.628 20.5545 29.628C21.0425 29.628 21.4825 29.708 21.8745 29.868C22.2745 30.02 22.6145 30.24 22.8945 30.528C23.1745 30.808 23.3905 31.152 23.5425 31.56C23.6945 31.96 23.7705 32.408 23.7705 32.904C23.7705 33.4 23.6945 33.848 23.5425 34.248C23.3905 34.648 23.1745 34.992 22.8945 35.28C22.6145 35.56 22.2745 35.776 21.8745 35.928C21.4825 36.08 21.0425 36.156 20.5545 36.156C20.0665 36.156 19.6265 36.08 19.2345 35.928C18.8425 35.776 18.5065 35.56 18.2265 35.28C17.9465 34.992 17.7305 34.648 17.5785 34.248C17.4265 33.848 17.3505 33.4 17.3505 32.904ZM30.6985 36H29.0785V35.136H29.0425C28.8265 35.496 28.5465 35.756 28.2025 35.916C27.8585 36.076 27.5065 36.156 27.1465 36.156C26.6905 36.156 26.3145 36.096 26.0185 35.976C25.7305 35.856 25.5025 35.688 25.3345 35.472C25.1665 35.248 25.0465 34.98 24.9745 34.668C24.9105 34.348 24.8785 33.996 24.8785 33.612V29.796H26.5825V33.3C26.5825 33.812 26.6625 34.196 26.8225 34.452C26.9825 34.7 27.2665 34.824 27.6745 34.824C28.1385 34.824 28.4745 34.688 28.6825 34.416C28.8905 34.136 28.9945 33.68 28.9945 33.048V29.796H30.6985V36ZM35.1238 34.884C35.4038 34.884 35.6358 34.828 35.8198 34.716C36.0118 34.604 36.1638 34.46 36.2758 34.284C36.3958 34.1 36.4798 33.888 36.5278 33.648C36.5758 33.408 36.5998 33.164 36.5998 32.916C36.5998 32.668 36.5718 32.424 36.5158 32.184C36.4678 31.944 36.3838 31.732 36.2638 31.548C36.1438 31.356 35.9878 31.204 35.7958 31.092C35.6118 30.972 35.3838 30.912 35.1118 30.912C34.8318 30.912 34.5958 30.972 34.4038 31.092C34.2198 31.204 34.0678 31.352 33.9478 31.536C33.8358 31.72 33.7558 31.932 33.7078 32.172C33.6598 32.412 33.6358 32.66 33.6358 32.916C33.6358 33.164 33.6598 33.408 33.7078 33.648C33.7638 33.888 33.8478 34.1 33.9598 34.284C34.0798 34.46 34.2358 34.604 34.4277 34.716C34.6198 34.828 34.8518 34.884 35.1238 34.884ZM31.9918 29.796H33.6118V30.588H33.6358C33.8438 30.252 34.1078 30.008 34.4277 29.856C34.7478 29.704 35.0998 29.628 35.4838 29.628C35.9718 29.628 36.3918 29.72 36.7438 29.904C37.0958 30.088 37.3878 30.332 37.6198 30.636C37.8518 30.94 38.0238 31.296 38.1358 31.704C38.2478 32.104 38.3038 32.524 38.3038 32.964C38.3038 33.38 38.2478 33.78 38.1358 34.164C38.0238 34.548 37.8518 34.888 37.6198 35.184C37.3958 35.48 37.1118 35.716 36.7678 35.892C36.4318 36.068 36.0358 36.156 35.5798 36.156C35.1958 36.156 34.8398 36.08 34.5117 35.928C34.1918 35.768 33.9278 35.536 33.7198 35.232H33.6958V38.172H31.9918V29.796ZM43.5037 32.232C43.4237 31.8 43.2797 31.472 43.0717 31.248C42.8717 31.024 42.5637 30.912 42.1477 30.912C41.8757 30.912 41.6477 30.96 41.4637 31.056C41.2877 31.144 41.1437 31.256 41.0317 31.392C40.9277 31.528 40.8517 31.672 40.8037 31.824C40.7637 31.976 40.7397 32.112 40.7317 32.232H43.5037ZM40.7317 33.312C40.7557 33.864 40.8957 34.264 41.1517 34.512C41.4077 34.76 41.7757 34.884 42.2557 34.884C42.5997 34.884 42.8957 34.8 43.1437 34.632C43.3917 34.456 43.5437 34.272 43.5997 34.08H45.0997C44.8597 34.824 44.4917 35.356 43.9957 35.676C43.4997 35.996 42.8997 36.156 42.1957 36.156C41.7077 36.156 41.2677 36.08 40.8757 35.928C40.4837 35.768 40.1517 35.544 39.8797 35.256C39.6077 34.968 39.3957 34.624 39.2437 34.224C39.0997 33.824 39.0277 33.384 39.0277 32.904C39.0277 32.44 39.1037 32.008 39.2557 31.608C39.4077 31.208 39.6237 30.864 39.9037 30.576C40.1837 30.28 40.5157 30.048 40.8997 29.88C41.2917 29.712 41.7237 29.628 42.1957 29.628C42.7237 29.628 43.1837 29.732 43.5757 29.94C43.9677 30.14 44.2877 30.412 44.5357 30.756C44.7917 31.1 44.9757 31.492 45.0877 31.932C45.1997 32.372 45.2397 32.832 45.2077 33.312H40.7317ZM46.2183 29.796H47.8383V30.948H47.8623C47.9423 30.756 48.0503 30.58 48.1863 30.42C48.3223 30.252 48.4783 30.112 48.6543 30C48.8303 29.88 49.0183 29.788 49.2183 29.724C49.4183 29.66 49.6263 29.628 49.8423 29.628C49.9543 29.628 50.0783 29.648 50.2143 29.688V31.272C50.1343 31.256 50.0383 31.244 49.9263 31.236C49.8143 31.22 49.7063 31.212 49.6023 31.212C49.2903 31.212 49.0263 31.264 48.8103 31.368C48.5943 31.472 48.4183 31.616 48.2823 31.8C48.1543 31.976 48.0623 32.184 48.0063 32.424C47.9503 32.664 47.9223 32.924 47.9223 33.204V36H46.2183V29.796ZM53.0424 29.796H54.2904V30.936H53.0424V34.008C53.0424 34.296 53.0904 34.488 53.1864 34.584C53.2824 34.68 53.4744 34.728 53.7624 34.728C53.8584 34.728 53.9504 34.724 54.0384 34.716C54.1264 34.708 54.2104 34.696 54.2904 34.68V36C54.1464 36.024 53.9864 36.04 53.8104 36.048C53.6344 36.056 53.4624 36.06 53.2944 36.06C53.0304 36.06 52.7784 36.04 52.5384 36C52.3064 35.968 52.0984 35.9 51.9144 35.796C51.7384 35.692 51.5984 35.544 51.4944 35.352C51.3904 35.16 51.3384 34.908 51.3384 34.596V30.936H50.3064V29.796H51.3384V27.936H53.0424V29.796ZM60.505 31.464H61.969C62.185 31.464 62.393 31.448 62.593 31.416C62.793 31.384 62.969 31.324 63.121 31.236C63.273 31.14 63.393 31.008 63.481 30.84C63.577 30.672 63.625 30.452 63.625 30.18C63.625 29.908 63.577 29.688 63.481 29.52C63.393 29.352 63.273 29.224 63.121 29.136C62.969 29.04 62.793 28.976 62.593 28.944C62.393 28.912 62.185 28.896 61.969 28.896H60.505V31.464ZM58.621 27.432H62.485C63.021 27.432 63.477 27.512 63.853 27.672C64.229 27.824 64.533 28.028 64.765 28.284C65.005 28.54 65.177 28.832 65.281 29.16C65.393 29.488 65.449 29.828 65.449 30.18C65.449 30.524 65.393 30.864 65.281 31.2C65.177 31.528 65.005 31.82 64.765 32.076C64.533 32.332 64.229 32.54 63.853 32.7C63.477 32.852 63.021 32.928 62.485 32.928H60.505V36H58.621V27.432ZM66.4929 27.432H68.1969V36H66.4929V27.432ZM75.3586 36H73.7386V35.136H73.7026C73.4866 35.496 73.2066 35.756 72.8626 35.916C72.5186 36.076 72.1666 36.156 71.8066 36.156C71.3506 36.156 70.9746 36.096 70.6786 35.976C70.3906 35.856 70.1626 35.688 69.9946 35.472C69.8266 35.248 69.7066 34.98 69.6346 34.668C69.5706 34.348 69.5386 33.996 69.5386 33.612V29.796H71.2426V33.3C71.2426 33.812 71.3226 34.196 71.4826 34.452C71.6426 34.7 71.9266 34.824 72.3346 34.824C72.7986 34.824 73.1346 34.688 73.3426 34.416C73.5506 34.136 73.6546 33.68 73.6546 33.048V29.796H75.3586V36ZM77.9719 33.984C77.9719 34.168 78.0079 34.328 78.0799 34.464C78.1599 34.592 78.2599 34.7 78.3799 34.788C78.4999 34.868 78.6359 34.928 78.7879 34.968C78.9479 35.008 79.1119 35.028 79.2799 35.028C79.3999 35.028 79.5239 35.016 79.6519 34.992C79.7879 34.96 79.9079 34.916 80.0119 34.86C80.1239 34.796 80.2159 34.716 80.2879 34.62C80.3599 34.516 80.3959 34.388 80.3959 34.236C80.3959 33.98 80.2239 33.788 79.8799 33.66C79.5439 33.532 79.0719 33.404 78.4639 33.276C78.2159 33.22 77.9719 33.156 77.7319 33.084C77.4999 33.004 77.2919 32.904 77.1079 32.784C76.9239 32.656 76.7759 32.5 76.6639 32.316C76.5519 32.124 76.4959 31.892 76.4959 31.62C76.4959 31.22 76.5719 30.892 76.7239 30.636C76.8839 30.38 77.0919 30.18 77.3479 30.036C77.6039 29.884 77.8919 29.78 78.2119 29.724C78.5319 29.66 78.8599 29.628 79.1959 29.628C79.5319 29.628 79.8559 29.66 80.1679 29.724C80.4879 29.788 80.7719 29.896 81.0199 30.048C81.2679 30.2 81.4719 30.404 81.6319 30.66C81.7999 30.908 81.8999 31.224 81.9319 31.608H80.3119C80.2879 31.28 80.1639 31.06 79.9399 30.948C79.7159 30.828 79.4519 30.768 79.1479 30.768C79.0519 30.768 78.9479 30.776 78.8359 30.792C78.7239 30.8 78.6199 30.824 78.5239 30.864C78.4359 30.904 78.3599 30.964 78.2959 31.044C78.2319 31.116 78.1999 31.216 78.1999 31.344C78.1999 31.496 78.2559 31.62 78.3679 31.716C78.4799 31.812 78.6239 31.892 78.7999 31.956C78.9839 32.012 79.1919 32.064 79.4239 32.112C79.6559 32.16 79.8919 32.212 80.1319 32.268C80.3799 32.324 80.6199 32.392 80.8519 32.472C81.0919 32.552 81.3039 32.66 81.4879 32.796C81.6719 32.924 81.8199 33.088 81.9319 33.288C82.0439 33.48 82.0999 33.72 82.0999 34.008C82.0999 34.416 82.0159 34.76 81.8479 35.04C81.6879 35.312 81.4759 35.532 81.2119 35.7C80.9479 35.868 80.6439 35.984 80.2999 36.048C79.9639 36.12 79.6199 36.156 79.2679 36.156C78.9079 36.156 78.5559 36.12 78.2119 36.048C77.8679 35.976 77.5599 35.856 77.2879 35.688C77.0239 35.52 76.8039 35.3 76.6279 35.028C76.4599 34.748 76.3679 34.4 76.3519 33.984H77.9719ZM87.9011 33.156C87.9011 33.444 87.9531 33.688 88.0571 33.888C88.1611 34.088 88.2971 34.252 88.4651 34.38C88.6411 34.5 88.8451 34.592 89.0771 34.656C89.3091 34.712 89.5491 34.74 89.7971 34.74C89.9651 34.74 90.1451 34.728 90.3371 34.704C90.5291 34.672 90.7091 34.616 90.8771 34.536C91.0451 34.456 91.1851 34.348 91.2971 34.212C91.4091 34.068 91.4651 33.888 91.4651 33.672C91.4651 33.44 91.3891 33.252 91.2371 33.108C91.0931 32.964 90.9011 32.844 90.6611 32.748C90.4211 32.652 90.1491 32.568 89.8451 32.496C89.5411 32.424 89.2331 32.344 88.9211 32.256C88.6011 32.176 88.2891 32.08 87.9851 31.968C87.6811 31.848 87.4091 31.696 87.1691 31.512C86.9291 31.328 86.7331 31.1 86.5811 30.828C86.4371 30.548 86.3651 30.212 86.3651 29.82C86.3651 29.38 86.4571 29 86.6411 28.68C86.8331 28.352 87.0811 28.08 87.3851 27.864C87.6891 27.648 88.0331 27.488 88.4171 27.384C88.8011 27.28 89.1851 27.228 89.5691 27.228C90.0171 27.228 90.4451 27.28 90.8531 27.384C91.2691 27.48 91.6371 27.64 91.9571 27.864C92.2771 28.088 92.5291 28.376 92.7131 28.728C92.9051 29.072 93.0011 29.492 93.0011 29.988H91.1771C91.1611 29.732 91.1051 29.52 91.0091 29.352C90.9211 29.184 90.8011 29.052 90.6491 28.956C90.4971 28.86 90.3211 28.792 90.1211 28.752C89.9291 28.712 89.7171 28.692 89.4851 28.692C89.3331 28.692 89.1811 28.708 89.0291 28.74C88.8771 28.772 88.7371 28.828 88.6091 28.908C88.4891 28.988 88.3891 29.088 88.3091 29.208C88.2291 29.328 88.1891 29.48 88.1891 29.664C88.1891 29.832 88.2211 29.968 88.2851 30.072C88.3491 30.176 88.4731 30.272 88.6571 30.36C88.8491 30.448 89.1091 30.536 89.4371 30.624C89.7731 30.712 90.2091 30.824 90.7451 30.96C90.9051 30.992 91.1251 31.052 91.4051 31.14C91.6931 31.22 91.9771 31.352 92.2571 31.536C92.5371 31.72 92.7771 31.968 92.9771 32.28C93.1851 32.584 93.2891 32.976 93.2891 33.456C93.2891 33.848 93.2131 34.212 93.0611 34.548C92.9091 34.884 92.6811 35.176 92.3771 35.424C92.0811 35.664 91.7091 35.852 91.2611 35.988C90.8211 36.124 90.3091 36.192 89.7251 36.192C89.2531 36.192 88.7931 36.132 88.3451 36.012C87.9051 35.9 87.5131 35.72 87.1691 35.472C86.8331 35.224 86.5651 34.908 86.3651 34.524C86.1651 34.14 86.0691 33.684 86.0771 33.156H87.9011ZM98.406 32.232C98.326 31.8 98.182 31.472 97.974 31.248C97.774 31.024 97.466 30.912 97.05 30.912C96.778 30.912 96.55 30.96 96.366 31.056C96.19 31.144 96.046 31.256 95.934 31.392C95.83 31.528 95.754 31.672 95.706 31.824C95.666 31.976 95.642 32.112 95.634 32.232H98.406ZM95.634 33.312C95.658 33.864 95.798 34.264 96.054 34.512C96.31 34.76 96.678 34.884 97.158 34.884C97.502 34.884 97.798 34.8 98.046 34.632C98.294 34.456 98.446 34.272 98.502 34.08H100.002C99.762 34.824 99.394 35.356 98.898 35.676C98.402 35.996 97.802 36.156 97.098 36.156C96.61 36.156 96.17 36.08 95.778 35.928C95.386 35.768 95.054 35.544 94.782 35.256C94.51 34.968 94.298 34.624 94.146 34.224C94.002 33.824 93.93 33.384 93.93 32.904C93.93 32.44 94.006 32.008 94.158 31.608C94.31 31.208 94.526 30.864 94.806 30.576C95.086 30.28 95.418 30.048 95.802 29.88C96.194 29.712 96.626 29.628 97.098 29.628C97.626 29.628 98.086 29.732 98.478 29.94C98.87 30.14 99.19 30.412 99.438 30.756C99.694 31.1 99.878 31.492 99.99 31.932C100.102 32.372 100.142 32.832 100.11 33.312H95.634ZM101.121 29.796H102.741V30.948H102.765C102.845 30.756 102.953 30.58 103.089 30.42C103.225 30.252 103.381 30.112 103.557 30C103.733 29.88 103.921 29.788 104.121 29.724C104.321 29.66 104.529 29.628 104.745 29.628C104.857 29.628 104.981 29.648 105.117 29.688V31.272C105.037 31.256 104.941 31.244 104.829 31.236C104.717 31.22 104.609 31.212 104.505 31.212C104.193 31.212 103.929 31.264 103.713 31.368C103.497 31.472 103.321 31.616 103.185 31.8C103.057 31.976 102.965 32.184 102.909 32.424C102.853 32.664 102.825 32.924 102.825 33.204V36H101.121V29.796ZM109.217 36H107.321L105.197 29.796H106.985L108.293 34.032H108.317L109.625 29.796H111.317L109.217 36ZM113.771 28.836H112.067V27.432H113.771V28.836ZM112.067 29.796H113.771V36H112.067V29.796ZM119.337 31.98C119.225 31.268 118.805 30.912 118.077 30.912C117.805 30.912 117.577 30.976 117.393 31.104C117.209 31.224 117.057 31.384 116.937 31.584C116.825 31.776 116.745 31.992 116.697 32.232C116.649 32.464 116.625 32.696 116.625 32.928C116.625 33.152 116.649 33.38 116.697 33.612C116.745 33.844 116.821 34.056 116.925 34.248C117.037 34.432 117.185 34.584 117.369 34.704C117.553 34.824 117.777 34.884 118.041 34.884C118.449 34.884 118.761 34.772 118.977 34.548C119.201 34.316 119.341 34.008 119.397 33.624H121.041C120.929 34.448 120.609 35.076 120.081 35.508C119.553 35.94 118.877 36.156 118.053 36.156C117.589 36.156 117.161 36.08 116.769 35.928C116.385 35.768 116.057 35.548 115.785 35.268C115.513 34.988 115.301 34.656 115.149 34.272C114.997 33.88 114.921 33.452 114.921 32.988C114.921 32.508 114.989 32.064 115.125 31.656C115.269 31.24 115.477 30.884 115.749 30.588C116.021 30.284 116.353 30.048 116.745 29.88C117.137 29.712 117.585 29.628 118.089 29.628C118.457 29.628 118.809 29.676 119.145 29.772C119.489 29.868 119.793 30.016 120.057 30.216C120.329 30.408 120.549 30.652 120.717 30.948C120.885 31.236 120.981 31.58 121.005 31.98H119.337ZM126.179 32.232C126.099 31.8 125.955 31.472 125.747 31.248C125.547 31.024 125.239 30.912 124.823 30.912C124.551 30.912 124.323 30.96 124.139 31.056C123.963 31.144 123.819 31.256 123.707 31.392C123.603 31.528 123.527 31.672 123.479 31.824C123.439 31.976 123.415 32.112 123.407 32.232H126.179ZM123.407 33.312C123.431 33.864 123.571 34.264 123.827 34.512C124.083 34.76 124.451 34.884 124.931 34.884C125.275 34.884 125.571 34.8 125.819 34.632C126.067 34.456 126.219 34.272 126.275 34.08H127.775C127.535 34.824 127.167 35.356 126.671 35.676C126.175 35.996 125.575 36.156 124.871 36.156C124.383 36.156 123.943 36.08 123.551 35.928C123.159 35.768 122.827 35.544 122.555 35.256C122.283 34.968 122.071 34.624 121.919 34.224C121.775 33.824 121.703 33.384 121.703 32.904C121.703 32.44 121.779 32.008 121.931 31.608C122.083 31.208 122.299 30.864 122.579 30.576C122.859 30.28 123.191 30.048 123.575 29.88C123.967 29.712 124.399 29.628 124.871 29.628C125.399 29.628 125.859 29.732 126.251 29.94C126.643 30.14 126.963 30.412 127.211 30.756C127.467 31.1 127.651 31.492 127.763 31.932C127.875 32.372 127.915 32.832 127.883 33.312H123.407Z" fill="#594030"/>
<path fill-rule="evenodd" clip-rule="evenodd" d="M56.6398 3.60199C56.8443 1.55718 58.5649 0 60.62 0L76.418 0C78.8418 0 80.7086 2.13847 80.3814 4.54006L78.7462 16.5401C78.4761 18.5222 76.7832 20 74.7828 20H59.42C57.0535 20 55.2043 17.9567 55.4398 15.602L56.6398 3.60199Z" fill="url(#paint0_linear_48_30)"/>
<mask id="mask0_48_30" style="mask-type:luminance" maskUnits="userSpaceOnUse" x="55" y="0" width="26" height="20">
<path fill-rule="evenodd" clip-rule="evenodd" d="M56.6398 3.60199C56.8443 1.55718 58.5649 0 60.62 0L76.418 0C78.8418 0 80.7086 2.13847 80.3814 4.54006L78.7462 16.5401C78.4761 18.5222 76.7832 20 74.7828 20H59.42C57.0535 20 55.2043 17.9567 55.4398 15.602L56.6398 3.60199Z" fill="white"/>
</mask>
<g mask="url(#mask0_48_30)">
</g>
<path fill-rule="evenodd" clip-rule="evenodd" d="M61.9183 6.87317C61.3054 6.72286 60.7392 7.24961 60.8448 7.87177L61.6705 12.7338C61.9569 14.4204 63.4182 15.6545 65.129 15.6545H70.5357C72.2465 15.6545 73.7078 14.4204 73.9942 12.7338L74.8199 7.87177C74.9255 7.24961 74.3592 6.72286 73.7463 6.87317L71.0488 7.53473C70.6701 7.6276 70.2761 7.45607 70.086 7.11565L68.5981 4.45048C68.2635 3.85114 67.4012 3.85114 67.0666 4.45048L65.5787 7.11565C65.3886 7.45607 64.9946 7.6276 64.6159 7.53473L61.9183 6.87317ZM66.3896 9.13383C66.1501 8.84376 65.7618 8.84376 65.5224 9.13383C65.2829 9.4239 65.2829 9.89421 65.5224 10.1843L67.4846 12.5612C67.7241 12.8512 68.1123 12.8512 68.3518 12.5612L70.314 10.1843C70.5535 9.89421 70.5535 9.4239 70.314 9.13383L70.2819 9.09764C70.041 8.8443 69.6759 8.85637 69.4468 9.13383L67.9182 10.9857L66.3896 9.13383Z" fill="url(#paint1_linear_48_30)"/>
<mask id="mask1_48_30" style="mask-type:luminance" maskUnits="userSpaceOnUse" x="60" y="4" width="15" height="12">
<path fill-rule="evenodd" clip-rule="evenodd" d="M61.9183 6.87317C61.3054 6.72286 60.7392 7.24961 60.8448 7.87177L61.6705 12.7338C61.9569 14.4204 63.4182 15.6545 65.129 15.6545H70.5357C72.2465 15.6545 73.7078 14.4204 73.9942 12.7338L74.8199 7.87177C74.9255 7.24961 74.3592 6.72286 73.7463 6.87317L71.0488 7.53473C70.6701 7.6276 70.2761 7.45607 70.086 7.11565L68.5981 4.45048C68.2635 3.85114 67.4012 3.85114 67.0666 4.45048L65.5787 7.11565C65.3886 7.45607 64.9946 7.6276 64.6159 7.53473L61.9183 6.87317ZM66.3896 9.13383C66.1501 8.84376 65.7618 8.84376 65.5224 9.13383C65.2829 9.4239 65.2829 9.89421 65.5224 10.1843L67.4846 12.5612C67.7241 12.8512 68.1123 12.8512 68.3518 12.5612L70.314 10.1843C70.5535 9.89421 70.5535 9.4239 70.314 9.13383L70.2819 9.09764C70.041 8.8443 69.6759 8.85637 69.4468 9.13383L67.9182 10.9857L66.3896 9.13383Z" fill="white"/>
</mask>
<g mask="url(#mask1_48_30)">
</g>
</g>
<defs>
<linearGradient id="paint0_linear_48_30" x1="43.9594" y1="10.3582" x2="61.9522" y2="34.1198" gradientUnits="userSpaceOnUse">
<stop stop-color="#734627"/>
<stop offset="0.412083" stop-color="#362315"/>
<stop offset="1" stop-color="#020305"/>
</linearGradient>
<linearGradient id="paint1_linear_48_30" x1="56.3835" y1="11.3395" x2="64.5576" y2="21.3317" gradientUnits="userSpaceOnUse">
<stop stop-color="#FFFCF7"/>
<stop offset="1" stop-color="#FFBA97"/>
</linearGradient>
<clipPath id="clip0_48_30">
<rect width="136" height="44" fill="white" transform="translate(0.5)"/>
</clipPath>
</defs>
</svg>
