<?xml version="1.0" encoding="UTF-8"?>
<svg width="12px" height="12px" viewBox="0 0 12 12" version="1.1" xmlns="http://www.w3.org/2000/svg" xmlns:xlink="http://www.w3.org/1999/xlink">
    <title>icon_tips</title>
    <g stroke="none" stroke-width="1" fill="none" fill-rule="evenodd">
        <g id="Task-Center" transform="translate(-770.000000, -1490.000000)" fill="#999999" fill-rule="nonzero">
            <g transform="translate(643.000000, 1378.000000)">
                <g transform="translate(48.000000, 106.000000)">
                    <g id="icon_tips" transform="translate(79.000000, 6.000000)">
                        <rect opacity="0" x="0" y="0" width="12" height="12"></rect>
                        <path d="M6,0.057140625 C2.68571484,0.057140625 0.057140625,2.68571484 0.057140625,6 C0.057140625,9.31428516 2.74285547,11.9428594 6,11.9428594 C9.31428516,11.9428594 11.9428594,9.25714453 11.9428594,6 C11.9428594,2.74285547 9.31428516,0.057140625 6,0.057140625 Z M6,10.8 C3.31428516,10.8 1.2,8.62857422 1.2,6 C1.2,3.37142578 3.37142578,1.2 6,1.2 C8.62857422,1.2 10.8,3.37142578 10.8,6 C10.8,8.62857422 8.68571484,10.8 6,10.8 Z M5.42857031,4.51428516 L6.57142969,4.51428516 L6.57142969,9.42856641 L5.42857031,9.42856641 L5.42857031,4.51428516 Z M5.42857031,2.45714063 L6.57142969,2.45714063 L6.57142969,3.54285938 L5.42857031,3.54285938 L5.42857031,2.45714063 Z"></path>
                    </g>
                </g>
            </g>
        </g>
    </g>
</svg>