<?xml version="1.0" encoding="UTF-8"?>
<svg width="16px" height="16px" viewBox="0 0 16 16" version="1.1" xmlns="http://www.w3.org/2000/svg" xmlns:xlink="http://www.w3.org/1999/xlink">
    <title>icon_set</title>
    <g id="-1" stroke="none" stroke-width="1" fill="none" fill-rule="evenodd">
        <g id="" transform="translate(-342.000000, -78.000000)" fill="#999999" fill-rule="nonzero">
            <g id="--2" transform="translate(43.000000, 62.000000)">
                <g id="icon_set" transform="translate(299.000000, 16.000000)">
                    <rect id="" opacity="0" x="0" y="0" width="16" height="16"></rect>
                    <path d="M8.46731914,5.48368022 C6.83394767,5.48368022 5.55536591,6.79675657 5.55536591,8.47113801 C5.55536591,10.1471922 6.83394767,11.4585958 8.46731914,11.4585958 C10.0722405,11.4585958 11.3792724,10.1187561 11.3792724,8.47113801 C11.3792724,6.82519262 10.0722405,5.48368022 8.46731914,5.48368022 L8.46731914,5.48368022 Z M8.46731914,10.1906826 C7.52846525,10.1906826 6.79210926,9.43629095 6.79210926,8.47113801 C6.79210926,7.50765778 7.52846525,6.75159343 8.46731914,6.75159343 C9.40617302,6.75159343 10.142529,7.50765778 10.142529,8.47113801 C10.142529,9.43629095 9.40784656,10.1906826 8.46731914,10.1906826 L8.46731914,10.1906826 Z M15.8258584,7.012536 C15.7455287,6.46556024 15.3790242,6.05407389 14.8602279,5.93698428 L14.7732041,5.92360261 C14.3849436,5.82156738 14.1155043,5.59909712 13.8795356,5.18593806 C13.6636495,4.81626943 13.6100963,4.37634704 13.7205497,4.04849613 C13.9314153,3.5450108 13.7858176,2.95287191 13.3808218,2.59825766 C12.6846307,1.92248333 11.8595773,1.41230717 10.9709295,1.09783793 C10.5006658,0.890422047 9.97684891,1.01754791 9.57017958,1.43405238 L9.52164703,1.49092448 C9.10326294,2.03790024 8.15436784,2.21018923 7.36445869,1.40059821 C7.15024604,1.18147337 6.68835001,0.84693162 5.96538231,1.09783793 C5.04493733,1.49761532 4.27511061,1.96931918 3.65088156,2.5096041 C3.20237382,2.83745501 3.01493775,3.42624848 3.18898553,3.94980631 C3.30445954,4.41983747 3.25592698,4.85139632 3.04840848,5.23277391 C2.8743607,5.54389773 2.53128575,5.80316759 2.12294288,5.93029345 C1.99240705,5.95203866 1.89534194,6.00556534 1.82170634,6.06411015 C1.54055224,6.23138102 1.32968666,6.48730546 1.18074192,6.84359242 L1.13053583,6.99748162 L1.13053583,7.06606268 C1.04183841,7.54445737 1,8.00445227 1,8.50626489 C1,8.90102415 1.02510305,9.47141783 1.14225059,9.97155774 C1.22425387,10.5168608 1.59075833,10.9250017 2.10788106,11.0420913 L2.19490494,11.055473 C2.58316537,11.1575082 2.85093119,11.3783058 3.08857335,11.7914648 C3.30445954,12.1611335 3.3580127,12.6010559 3.2475593,12.9305795 C3.03669372,13.4340648 3.18229138,14.0262037 3.58728718,14.3808179 C4.29017244,15.0649558 5.12861414,15.575132 6.07750925,15.8996375 L6.17290082,15.9330917 L6.17624789,15.9330917 C6.23482166,15.9498187 6.31180433,15.9665458 6.40384883,15.9665458 L6.50258748,15.9665458 C6.85235657,15.9665458 7.2037992,15.8126566 7.4983416,15.5065509 C7.97195238,14.9328118 8.90243858,14.7923043 9.67059176,15.5784774 C9.9350105,15.8494562 10.2529824,16 10.5659337,16 C10.6747136,16 10.8738644,16 11.0361974,15.9163646 C11.9415806,15.523278 12.7013661,15.0599377 13.3557188,14.5029257 C13.7925118,14.2068562 13.9883155,13.5946448 13.8125942,13.0627235 C13.6971202,12.5926923 13.7456527,12.1611335 13.9531712,11.7814286 C14.127219,11.4686321 14.470294,11.2110349 14.8786368,11.083909 C15.0108462,11.0638365 15.1062378,11.0086372 15.1815469,10.9484196 C15.462701,10.7811488 15.6718931,10.526897 15.8208378,10.1706101 L15.8710439,10.0167209 L15.8710439,9.94813982 C15.9597413,9.46974512 16.0015797,9.00807751 15.9999544,8.45608363 C15.9647619,7.97936164 15.9296177,7.48758528 15.8258584,7.012536 L15.8258584,7.012536 Z M14.6476888,9.74072393 C14.6008298,9.82770479 14.5656855,9.84443188 14.5472766,9.85446813 L14.5355619,9.86115896 C13.8142677,10.0819565 13.2134682,10.5486423 12.8754138,11.1524901 C12.5038888,11.8299371 12.4151914,12.6094194 12.6193628,13.4073015 L12.629404,13.4658463 L12.5892391,13.5009732 C12.0419928,13.9743497 11.3993548,14.3707817 10.5960574,14.7287414 C10.5826691,14.7203778 10.5642602,14.7053234 10.5408307,14.6819055 C9.95007233,14.076385 9.2672695,13.7568976 8.56271071,13.7568976 C7.77112802,13.7568976 7.0381191,14.0964575 6.58626429,14.6484513 C6.53940528,14.6969599 6.4992404,14.6986326 6.4992404,14.6986326 L6.39380761,14.6651784 L6.37372518,14.6651784 C5.63402212,14.3992177 4.98301648,13.9927495 4.43409656,13.4608281 L4.39560523,13.3922471 C4.64328861,12.6729823 4.54957057,11.8316098 4.14959539,11.1457993 C3.7312113,10.4164983 3.16053541,9.97824857 2.40744406,9.80595957 L2.35891151,9.79926874 L2.36393211,9.77585082 L2.35054382,9.70057892 C2.27858176,9.40283677 2.23841689,8.97964146 2.23841689,8.50961031 C2.23841689,8.07136062 2.27356115,7.68998303 2.3538909,7.27347856 C2.39907638,7.18817041 2.43589418,7.16977062 2.45430308,7.15973436 L2.46434429,7.15304353 C3.18563846,6.93224598 3.78811154,6.46556024 4.12449234,5.86171239 C4.49601741,5.18426536 4.58471483,4.40478309 4.3621345,3.55671976 L4.40899352,3.51490204 C4.9746488,3.02479839 5.64071626,2.61833016 6.4021753,2.28546113 C6.44568724,2.27040675 6.4624226,2.27040675 6.49087272,2.30051551 C7.08163105,2.90603607 7.76443387,3.22552343 8.46899267,3.22552343 C9.28902548,3.22552343 9.99693135,2.90269065 10.4655215,2.31556988 C10.4973187,2.28546113 10.5224218,2.27542487 10.5274424,2.28378842 C11.2905749,2.55476723 11.9650101,2.97127171 12.5340124,3.52326559 L12.5725038,3.59184664 C12.3248204,4.3111114 12.4185384,5.15248389 12.8185136,5.83829447 C13.2368977,6.56759547 13.8059001,7.00584516 14.5606649,7.17813416 L14.6008298,7.184825 C14.6025033,7.18984312 14.6041769,7.19820667 14.6058504,7.20991563 L14.6175652,7.27347856 C14.7045891,7.65987427 14.7347127,8.09143313 14.7648364,8.50961031 C14.7631628,8.94284187 14.7280186,9.32589217 14.6476888,9.74072393 Z"></path>
                </g>
            </g>
        </g>
    </g>
</svg>