<?xml version="1.0" encoding="UTF-8"?>
<svg width="16px" height="16px" viewBox="0 0 16 16" version="1.1" xmlns="http://www.w3.org/2000/svg"
    xmlns:xlink="http://www.w3.org/1999/xlink">
    <g stroke="none" stroke-width="1" fill="none" fill-rule="evenodd">
        <g transform="translate(-369.000000, -134.000000)" fill="#C6C6C6"
            fill-rule="nonzero">
            <g id="icon_close" transform="translate(369.000000, 134.000000)">
                <rect opacity="0" x="0" y="0" width="16" height="16"></rect>
                <path
                    d="M7.19263125,8 L3.16722589,3.97460115 C3.02300219,3.83037745 2.96667643,3.62016683 3.01946597,3.42315359 C3.0722555,3.22614036 3.22614036,3.0722555 3.42315359,3.01946597 C3.62016683,2.96667643 3.83037745,3.02300219 3.97460115,3.16722589 L8,7.19263125 L12.0254119,3.16722589 C12.2483624,2.94427539 12.6098366,2.9442754 12.8327871,3.16722591 C13.0557376,3.39017642 13.0557376,3.75165062 12.8327871,3.97460115 L8.80738175,8 L12.8327871,12.0254119 C13.0557376,12.2483624 13.0557376,12.6098366 12.8327871,12.8327871 C12.6098366,13.0557376 12.2483624,13.0557376 12.0254119,12.8327871 L8,8.80738175 L3.97460115,12.8327871 C3.75165062,13.0557376 3.39017642,13.0557376 3.16722591,12.8327871 C2.9442754,12.6098366 2.94427539,12.2483624 3.16722589,12.0254119 L7.19263125,8 Z"
                ></path>
            </g>
        </g>
    </g>
</svg>