<?xml version="1.0" encoding="UTF-8"?>
<svg width="14px" height="14px" viewBox="0 0 14 14" version="1.1" xmlns="http://www.w3.org/2000/svg" xmlns:xlink="http://www.w3.org/1999/xlink">
    <title></title>
    <g id="UI" stroke="none" stroke-width="1" fill="none" fill-rule="evenodd">
        <g id="Hot-Deals-" transform="translate(-306.000000, -86.000000)">
            <g id="-4" transform="translate(20.000000, 73.000000)">
                <g id="Icon/fill/delete" transform="translate(286.000000, 13.000000)">
                    <g id="icon_tips-2" fill="#C6C6C6" fill-rule="nonzero" opacity="0">
                        <g id="icon_tips">
                            <rect id="" x="0" y="0" width="14" height="14"></rect>
                        </g>
                    </g>
                    <g id="-14">
                        <circle id="" fill="#C6C6C6" cx="7" cy="7" r="7"></circle>
                        <path d="M7,2.33333333 C7.3221661,2.33333333 7.58333333,2.59450056 7.58333333,2.91666667 L7.58333333,6.41633333 L11.0833333,6.41666667 C11.4054994,6.41666667 11.6666667,6.6778339 11.6666667,7 C11.6666667,7.3221661 11.4054994,7.58333333 11.0833333,7.58333333 L7.58333333,7.58333333 L7.58333333,11.0833333 C7.58333333,11.4054994 7.3221661,11.6666667 7,11.6666667 C6.6778339,11.6666667 6.41666667,11.4054994 6.41666667,11.0833333 L6.41633333,7.58333333 L2.91666667,7.58333333 C2.59450056,7.58333333 2.33333333,7.3221661 2.33333333,7 C2.33333333,6.6778339 2.59450056,6.41666667 2.91666667,6.41666667 L6.41633333,6.41633333 L6.41666667,2.91666667 C6.41666667,2.59450056 6.6778339,2.33333333 7,2.33333333 Z" id="" fill="#FFFFFF" transform="translate(7.000000, 7.000000) rotate(-315.000000) translate(-7.000000, -7.000000) "></path>
                    </g>
                </g>
            </g>
        </g>
    </g>
</svg>