<svg width="20" height="20" viewBox="0 0 20 20" fill="none" xmlns="http://www.w3.org/2000/svg">
<g id="Icon_Phone">
<mask id="mask0_469_938" style="mask-type:alpha" maskUnits="userSpaceOnUse" x="0" y="0" width="20" height="20">
<rect id="Rectangle 7" width="20" height="20" fill="#D9D9D9"/>
</mask>
<g mask="url(#mask0_469_938)">
<path id="Vector" d="M17.1589 17.4354C17.1589 17.8013 17.0857 18.1415 16.9394 18.4562C16.793 18.7709 16.5918 19.049 16.3356 19.2905C16.0795 19.532 15.7795 19.7222 15.4355 19.8613C15.0916 20.0003 14.722 20.0698 14.3269 20.0698H6.53322C6.13805 20.0698 5.7685 20.0003 5.42455 19.8613C5.08061 19.7222 4.78057 19.532 4.52444 19.2905C4.26831 19.049 4.06707 18.7709 3.92071 18.4562C3.77435 18.1415 3.70117 17.8013 3.70117 17.4354V2.72625C3.70117 2.36035 3.77435 2.0164 3.92071 1.69441C4.06707 1.37242 4.26831 1.09068 4.52444 0.849187C4.78057 0.607695 5.08061 0.417428 5.42455 0.278386C5.7685 0.139345 6.13805 0.0698242 6.53322 0.0698242H14.3269C14.722 0.0698242 15.0916 0.139345 15.4355 0.278386C15.7795 0.417428 16.0795 0.607695 16.3356 0.849187C16.5918 1.09068 16.793 1.37242 16.9394 1.69441C17.0857 2.0164 17.1589 2.36035 17.1589 2.72625V17.4354ZM15.3806 3.78003H5.45748V16.3596H15.3806V3.78003ZM10.4191 16.9743C10.1117 16.9743 9.8446 17.0841 9.61775 17.3036C9.39089 17.5232 9.27746 17.7939 9.27746 18.1159C9.27746 18.4233 9.39089 18.6904 9.61775 18.9172C9.8446 19.1441 10.1117 19.2575 10.4191 19.2575C10.7411 19.2575 11.0118 19.1441 11.2314 18.9172C11.4509 18.6904 11.5607 18.4233 11.5607 18.1159C11.5607 17.7939 11.4509 17.5232 11.2314 17.3036C11.0118 17.0841 10.7411 16.9743 10.4191 16.9743ZM12.1754 1.91395C12.1754 1.79686 12.1388 1.70539 12.0656 1.63953C11.9924 1.57367 11.9119 1.54074 11.8241 1.54074H9.03597C8.96279 1.54074 8.88595 1.57367 8.80545 1.63953C8.72496 1.70539 8.68471 1.79686 8.68471 1.91395C8.68471 2.03104 8.7213 2.12251 8.79448 2.18838C8.86766 2.25424 8.94815 2.28717 9.03597 2.28717H11.8241C11.9119 2.28717 11.9924 2.25424 12.0656 2.18838C12.1388 2.12251 12.1754 2.03104 12.1754 1.91395Z" fill="white"/>
</g>
</g>
</svg>
