<?xml version="1.0" encoding="UTF-8"?>
<svg width="80px" height="80px" viewBox="0 0 80 80" version="1.1" xmlns="http://www.w3.org/2000/svg" xmlns:xlink="http://www.w3.org/1999/xlink">
    <title>img_nodata</title>
    <defs>
        <rect id="path-1" x="0" y="0" width="80" height="80"></rect>
    </defs>
    <g id="UI" stroke="none" stroke-width="1" fill="none" fill-rule="evenodd">
        <g id="Hot-Deals--" transform="translate(-140.000000, -233.000000)">
            <g id="" transform="translate(82.000000, 233.000000)">
                <g id="img_nodata" transform="translate(58.000000, 0.000000)">
                    <mask id="mask-2" fill="white">
                        <use xlink:href="#path-1"></use>
                    </mask>
                    <use id="" fill-opacity="0" fill="#000000" xlink:href="#path-1"></use>
                    <g id="-3" mask="url(#mask-2)">
                        <g transform="translate(40.500000, 41.805790) rotate(-60.000000) translate(-40.500000, -41.805790) translate(17.500000, 4.805790)" id="-5">
                            <g transform="translate(0.000000, 0.000000)">
                                <rect id="" fill="#D7D7D7" x="20.5170887" y="52" width="4.9658226" height="22" rx="2.4829113"></rect>
                                <rect id="" fill="#D7D7D7" x="22" y="46" width="2" height="12"></rect>
                                <circle id="-2" stroke="#D7D7D7" stroke-width="3" cx="23" cy="23" r="23"></circle>
                                <path d="M19.0490381,13.1567333 L23.5484828,20.9504828 L31.3432667,16.4509619 C32.0607057,16.0367483 32.9780913,16.2825611 33.3923048,17 C33.8065184,17.7174389 33.5607057,18.6348245 32.8432667,19.0490381 L25.0484828,23.5484828 L29.5490381,31.3432667 C29.9632517,32.0607057 29.7174389,32.9780913 29,33.3923048 C28.2825611,33.8065184 27.3651755,33.5607057 26.9509619,32.8432667 L22.4504828,25.0484828 L14.6567333,29.5490381 C13.9392943,29.9632517 13.0219087,29.7174389 12.6076952,29 C12.1934816,28.2825611 12.4392943,27.3651755 13.1567333,26.9509619 L20.9504828,22.4504828 L16.4509619,14.6567333 C16.0367483,13.9392943 16.2825611,13.0219087 17,12.6076952 C17.7174389,12.1934816 18.6348245,12.4392943 19.0490381,13.1567333 Z" fill="#D7D7D7" transform="translate(23.000000, 23.000000) rotate(-225.000000) translate(-23.000000, -23.000000) "></path>
                            </g>
                        </g>
                    </g>
                    <g id="" mask="url(#mask-2)" fill="#D7D7D7" fill-rule="nonzero">
                        <g transform="translate(53.153194, 10.351108) rotate(-329.000000) translate(-53.153194, -10.351108) translate(49.570295, 4.379610)">
                            <path d="M3.44780688,-1.60224986e-12 C1.38236114,0.229987009 0.234858993,1.12807817 0.00530042889,2.69338708 C-0.0406136093,3.20000231 0.21175664,3.47633895 0.762701844,3.52224538 C1.03787215,3.56844339 1.26743071,3.36119966 1.45108687,2.90064248 C1.72654784,1.93376165 2.39124918,1.45032124 3.44780688,1.45032124 C4.73231866,1.54228572 5.42084321,2.18692348 5.51354329,3.38408289 C5.51354329,4.48927783 4.76579208,4.66939292 4.35961155,5.0026344 C3.84493018,5.42505285 3.50833575,5.85348953 3.09630696,6.57968817 C2.75007395,7.18983779 2.6904171,8.49510358 2.6904171,8.49510358 C2.6904171,9.04762524 2.94219438,9.32396188 3.44781851,9.32396188 C3.90606363,9.32396188 4.15930589,9.04762524 4.20535945,8.49510358 C4.20535945,8.49510358 4.26603946,7.0302733 4.85558547,6.38255645 C5.52379809,5.64845014 7.11988353,5.13376397 7.16579757,3.24606036 C6.98214142,1.2661007 5.74281119,0.18408058 3.44780688,-1.60224986e-12 Z M3.44780688,10.0205243 C2.91851069,10.0205243 2.48965799,10.4510137 2.48965799,10.9816901 C2.48965799,11.5126348 2.91851069,11.9429959 3.44780688,11.9429959 C3.97710308,11.9429959 4.40610692,11.5126465 4.40610692,10.9816901 C4.40610692,10.4510137 3.97710308,10.0205243 3.44780688,10.0205243 L3.44780688,10.0205243 Z"></path>
                        </g>
                    </g>
                    <g id="" opacity="0.5" mask="url(#mask-2)" fill="#D7D7D7" fill-rule="nonzero">
                        <g transform="translate(58.261147, 23.094000) rotate(-284.000000) translate(-58.261147, -23.094000) translate(56.261147, 19.594000)">
                            <path d="M1.92459072,8.36365422e-13 C0.771643983,0.134799431 0.131099988,0.661186459 0.00295873772,1.57864155 C-0.0226708103,1.87557764 0.118204087,2.03754341 0.425745682,2.06444997 C0.579347737,2.09152744 0.707488987,1.97005824 0.810007179,1.70011758 C0.963771486,1.13341172 1.33481257,0.85005879 1.92459072,0.85005879 C2.64161449,0.903960789 3.02595386,1.28179432 3.07769972,1.98347051 C3.07769972,2.6312447 2.66029959,2.73681332 2.43356668,2.93213202 C2.14626782,3.1797189 1.95837837,3.43083317 1.72838093,3.85647097 C1.53511116,4.2140904 1.50181027,4.97912964 1.50181027,4.97912964 C1.50181027,5.3029723 1.64235417,5.46493807 1.92459722,5.46493807 C2.18039295,5.46493807 2.32175461,5.3029723 2.34746204,4.97912964 C2.34746204,4.97912964 2.38133406,4.12056684 2.71042291,3.7409286 C3.08342402,3.31065598 3.97437045,3.00898936 4,1.90257308 C3.89748181,0.742083892 3.20567872,0.107892866 1.92459072,8.36365422e-13 Z M1.92459072,5.87320555 C1.62913376,5.87320555 1.38974509,6.12552296 1.38974509,6.43656176 C1.38974509,6.74775779 1.62913376,7 1.92459072,7 C2.22004769,7 2.45952073,6.74776462 2.45952073,6.43656176 C2.45952073,6.12552296 2.22004769,5.87320555 1.92459072,5.87320555 L1.92459072,5.87320555 Z"></path>
                        </g>
                    </g>
                </g>
            </g>
        </g>
    </g>
</svg>