<svg width="14" height="14" viewBox="0 0 14 14" fill="none" xmlns="http://www.w3.org/2000/svg">
<g id="icon_tips 2">
<g id="icon_tips">
<rect id="&#231;&#159;&#169;&#229;&#189;&#162;" opacity="0.01" width="14" height="14" fill="black"/>
<path id="&#229;&#189;&#162;&#231;&#138;&#182;" fill-rule="evenodd" clip-rule="evenodd" d="M6.99956 0C3.13342 0 0 3.13425 0 7C0 10.8656 3.13429 14 6.99956 14C10.8649 14 14 10.8656 14 7C14 3.13427 10.8649 0 6.99956 0ZM6.18309 3.13211C6.39716 2.91226 6.69151 2.78857 6.99657 2.79306C7.30334 2.79005 7.60068 2.91226 7.81348 3.13213C8.03054 3.34594 8.15057 3.63992 8.14757 3.9433C8.15057 4.24965 8.0275 4.54425 7.8092 4.75596C7.59688 4.9683 7.30762 5.089 7.00852 5.089H6.99659C6.69323 5.09204 6.39845 4.97132 6.18652 4.75447C5.96865 4.54274 5.84816 4.24812 5.85069 3.9433C5.84814 3.63992 5.96863 3.34594 6.18309 3.13213V3.13211ZM8.67055 11.2082V10.6931L8.67052 10.6931H8.67011V10.3898L8.36805 10.3712C8.26805 10.3661 8.1963 10.3513 8.1557 10.3372L8.11641 10.3201H8.11597C8.10058 10.2802 8.06172 10.1056 8.06597 9.84948V5.56628H5.32691V6.38857L5.62894 6.40714C5.72677 6.41314 5.79776 6.42789 5.83789 6.44196L5.87547 6.46036C5.89172 6.49881 5.92929 6.67445 5.92587 6.93121V9.84949C5.92675 10.0153 5.91689 10.1432 5.90282 10.224L5.88488 10.3024C5.85028 10.3321 5.78744 10.3645 5.63962 10.3712L5.32689 10.3823V11.2082H8.67055Z" fill="#272636"/>
</g>
</g>
</svg>
