<?xml version="1.0" encoding="UTF-8"?>
<svg width="103px" height="78px" viewBox="0 0 103 78" version="1.1" xmlns="http://www.w3.org/2000/svg" xmlns:xlink="http://www.w3.org/1999/xlink">
    <defs>
        <linearGradient x1="-21292.17%" y1="-19943.777%" x2="-21292.17%" y2="-19843.6967%" id="linearGradient-1">
            <stop stop-color="#EFAD7B" offset="0%"></stop>
            <stop stop-color="#F17212" offset="100%"></stop>
        </linearGradient>
        <circle id="path-2" cx="5.30330086" cy="5.30330086" r="5.30330086"></circle>
        <filter x="-4.7%" y="-4.7%" width="118.9%" height="109.4%" filterUnits="objectBoundingBox" id="filter-3">
            <feOffset dx="1" dy="0" in="SourceAlpha" result="shadowOffsetOuter1"></feOffset>
            <feColorMatrix values="0 0 0 0 0.83947577   0 0 0 0 0.552286691   0 0 0 0 0  0 0 0 1 0" type="matrix" in="shadowOffsetOuter1"></feColorMatrix>
        </filter>
        <circle id="path-4" cx="8.62880242" cy="8.62880242" r="8.62880242"></circle>
        <filter x="-2.9%" y="-2.9%" width="111.6%" height="105.8%" filterUnits="objectBoundingBox" id="filter-5">
            <feOffset dx="1" dy="0" in="SourceAlpha" result="shadowOffsetOuter1"></feOffset>
            <feColorMatrix values="0 0 0 0 0.83947577   0 0 0 0 0.552286691   0 0 0 0 0  0 0 0 1 0" type="matrix" in="shadowOffsetOuter1"></feColorMatrix>
        </filter>
    </defs>
    <g stroke="none" stroke-width="1" fill="none" fill-rule="evenodd">
        <g id="Task-Center" transform="translate(-263.000000, -71.000000)">
            <g transform="translate(0.000000, 57.000000)">
                <g transform="translate(263.301860, 14.150873)">
                    <g transform="translate(54.698140, 40.849127) scale(-1, 1) translate(-54.698140, -40.849127) translate(24.698140, 3.849127)" fill-rule="nonzero">
                        <path d="M3.14514171,8.40909091 L53.4745766,8.40909091 C55.2120022,8.40909091 56.6197183,9.80691362 56.6197183,11.5321286 L56.6197183,70.8769623 C56.6197183,72.6021773 55.2120022,74 53.4745766,74 L3.14514171,74 C1.40771611,74 0,72.6021773 0,70.8769623 L0,11.5321286 C0,9.80691362 1.40771611,8.40909091 3.14514171,8.40909091 Z" fill="url(#linearGradient-1)"></path>
                        <path d="M42.2535211,10.0909091 L14.3661972,10.0909091 L14.3661972,6.21813889 C14.3676636,5.15001669 15.3267166,4.28440093 16.5101351,4.28175379 L23.4830659,4.28175379 C23.5285256,1.90594296 25.6768629,0 28.3091259,0 C30.9428554,0 33.0911927,1.90594296 33.1366524,4.28175379 L40.1081168,4.28175379 C41.2915353,4.28440093 42.2505882,5.15001669 42.2535211,6.21813889 L42.2535211,10.0909091 Z M28.3091259,1.8622651 C27.223959,1.8622651 26.2458423,2.45257798 25.8308393,3.35657732 C25.4158362,4.26190022 25.6460676,5.30355099 26.4130167,5.99577888 C27.1799657,6.68800677 28.3340554,6.89448393 29.3371016,6.51858962 C30.3386814,6.14401889 30.991248,5.2611967 30.991248,4.28175379 C30.9897816,2.94494658 29.7902322,1.8622651 28.3091259,1.8622651 Z" fill="#B56528"></path>
                        <polygon fill="#71360A" points="14.3661972 10.0909091 42.2535211 10.0909091 42.2535211 10.9318182 14.3661972 10.9318182"></polygon>
                        <polygon fill="#9A4B10" points="5.91549296 10.9318182 52.3943662 10.9318182 52.3943662 66.4318182 5.91549296 66.4318182"></polygon>
                        <path d="M5.07042254,29.0466266 C5.07042254,29.0466266 5.95138119,60.6485708 6.57098878,63.9786398 C7.54738462,64.5766451 30.7679865,65.5909091 36.9097366,65.5909091 C43.0514867,65.5909091 56.0720557,63.494959 56.6197183,63.4465909 C56.6197183,62.6287307 51.781787,54.3885688 50.2738795,44.8190176 C48.7659719,35.2494664 48.7674402,22.7045455 48.7674402,22.7045455 L5.07042254,22.7045455 L5.07042254,29.0466266 Z" fill="#FBDFCB"></path>
                        <path d="M5.07042254,26.4128238 C5.07042254,26.4128238 6.89611026,57.1439239 8.16038443,61.2366307 C9.13009876,61.8327837 24.4734584,63.9090909 36.1581515,63.9090909 C47.8428446,63.9090909 59.456085,60.7500647 60,60.7018465 C60,59.8865197 54.2094202,55.1494416 53.0676362,41.9990088 C52.3793578,32.253077 52.2014553,12.6136364 52.2014553,12.6136364 L5.07042254,12.6136364 L5.07042254,26.4128238 Z" fill="#FFFFFF"></path>
                        <polygon fill="#FBDFCB" points="19.4366197 22.7045455 46.4788732 22.7045455 46.4788732 26.0681818 19.4366197 26.0681818"></polygon>
                        <polygon fill="#FBDFCB" points="20.2816901 33.6363636 47.3239437 33.6363636 47.3239437 37 20.2816901 37"></polygon>
                        <polygon fill="#FBDFCB" points="21.971831 47.0909091 49.8591549 47.0909091 49.8591549 50.4545455 21.971831 50.4545455"></polygon>
                        <polygon fill="#FBDFCB" points="10.1408451 22.7045455 13.5211268 22.7045455 13.5211268 26.0681818 10.1408451 26.0681818"></polygon>
                        <polygon fill="#FBDFCB" points="12.6760563 33.6363636 16.056338 33.6363636 16.056338 37 12.6760563 37"></polygon>
                        <polygon fill="#FBDFCB" points="13.5211268 47.0909091 16.9014085 47.0909091 16.9014085 50.4545455 13.5211268 50.4545455"></polygon>
                    </g>
                    <g transform="translate(94.198140, 40.349127) rotate(-90.000000) translate(-94.198140, -40.349127) translate(86.698140, 32.849127)">
                        <g transform="translate(7.500000, 7.500000) rotate(-315.000000) translate(-7.500000, -7.500000) translate(2.196699, 2.196699)">
                            <g>
                                <use fill="black" fill-opacity="1" filter="url(#filter-3)" xlink:href="#path-2"></use>
                                <use fill="#FFB11B" fill-rule="evenodd" xlink:href="#path-2"></use>
                            </g>
                            <circle fill="#FFD36D" cx="5.30330086" cy="5.30330086" r="4.15040937"></circle>
                            <g id="$" transform="translate(3.843272, 2.462172)" fill="#4F3B0A" fill-rule="nonzero">
                                <path d="M2.04322996,3.81715167 C2.04322996,3.65712793 1.99883313,3.52979197 1.91003947,3.43514378 C1.82124581,3.34049559 1.67049173,3.25316556 1.45777725,3.17315369 C1.24506276,3.09314182 1.06162091,3.01361783 0.907451701,2.93458171 C0.753282487,2.85554559 0.62106775,2.76480042 0.51080749,2.6623462 C0.400547229,2.55989198 0.314680832,2.43938629 0.253208297,2.30082915 C0.191735763,2.16227201 0.160999495,1.9973695 0.160999495,1.80612161 C0.160999495,1.47631658 0.266380983,1.20603258 0.477143959,0.995269608 C0.687906935,0.784506632 0.967948481,0.661561563 1.3172686,0.6264344 L1.3172686,0 L1.78563077,0 L1.78563077,0.635216191 C2.13104787,0.684003917 2.40133187,0.827927708 2.59648277,1.06698756 C2.79163367,1.30604742 2.88920913,1.61584948 2.88920913,1.99639374 L2.04322996,1.99639374 C2.04322996,1.76221266 1.99493011,1.58706472 1.89833041,1.47094993 C1.80173072,1.35483515 1.67244324,1.29677775 1.51046799,1.29677775 C1.35044425,1.29677775 1.22652343,1.34215034 1.13870552,1.43289551 C1.05088762,1.52364068 1.00697866,1.64902513 1.00697866,1.80904887 C1.00697866,1.95736356 1.04991186,2.07640561 1.13577826,2.16617503 C1.22164466,2.25594444 1.38118052,2.34766537 1.61438585,2.4413378 C1.84759118,2.53501024 2.03932694,2.62331602 2.18959314,2.70625515 C2.33985933,2.78919429 2.46670742,2.88286672 2.5701374,2.98727245 C2.67356738,3.09167819 2.75260349,3.21072024 2.80724575,3.34439861 C2.861888,3.47807698 2.88920913,3.63370982 2.88920913,3.81129714 C2.88920913,4.14305368 2.78577915,4.41236193 2.57891919,4.61922188 C2.37205923,4.82608184 2.08713891,4.94805116 1.72415823,4.98512983 L1.72415823,5.56765528 L1.25872333,5.56765528 L1.25872333,4.98805709 C0.858663975,4.94512389 0.548861916,4.80315161 0.32931715,4.56214025 C0.109772383,4.32112888 0,4.00059352 0,3.60053417 L0.845979166,3.60053417 C0.845979166,3.83276374 0.901109297,4.01083894 1.01136956,4.13475977 C1.12162982,4.25868059 1.28018993,4.320641 1.48704988,4.320641 C1.65878268,4.320641 1.79441256,4.27526842 1.89393952,4.18452325 C1.99346648,4.09377808 2.04322996,3.97132088 2.04322996,3.81715167 Z"></path>
                            </g>
                        </g>
                    </g>
                    <g transform="translate(14.945524, 32.831887) rotate(-15.000000) translate(-14.945524, -32.831887) translate(2.742555, 20.628917)">
                        <g transform="translate(12.202969, 12.202969) rotate(-315.000000) translate(-12.202969, -12.202969) translate(3.574167, 3.574167)">
                            <g>
                                <use fill="black" fill-opacity="1" filter="url(#filter-5)" xlink:href="#path-4"></use>
                                <use fill="#FFB11B" fill-rule="evenodd" xlink:href="#path-4"></use>
                            </g>
                            <circle fill="#FFD36D" cx="8.62880242" cy="8.62880242" r="6.75297581"></circle>
                            <g id="$" transform="translate(6.253244, 4.006108)" fill="#4F3B0A" fill-rule="nonzero">
                                <path d="M3.32446303,6.21074468 C3.32446303,5.95037604 3.2522266,5.74319245 3.10775376,5.58919393 C2.96328092,5.4351954 2.7179946,5.29310398 2.37189482,5.16291966 C2.02579504,5.03273534 1.72732367,4.90334482 1.47648071,4.77474811 C1.22563775,4.64615141 1.0105161,4.49850334 0.831115757,4.3318039 C0.651715412,4.16510446 0.512005409,3.96903418 0.411985747,3.74359304 C0.311966086,3.51815189 0.261956256,3.24984518 0.261956256,2.9386729 C0.261956256,2.40205948 0.433418532,1.9622905 0.776343085,1.61936594 C1.11926764,1.27644139 1.57491276,1.07640207 2.14327846,1.01924798 L2.14327846,0 L2.90533302,0 L2.90533302,1.0335365 C3.46734826,1.11291718 3.90711724,1.3470902 4.22463998,1.73605555 C4.54216271,2.1250209 4.70092408,2.62908824 4.70092408,3.24825757 L3.32446303,3.24825757 C3.32446303,2.86723029 3.24587615,2.58225364 3.0887024,2.39332761 C2.93152864,2.20440158 2.72116983,2.10993857 2.45762596,2.10993857 C2.19725732,2.10993857 1.99563038,2.1837626 1.85274515,2.33141068 C1.70985992,2.47905875 1.63841731,2.6830671 1.63841731,2.94343575 C1.63841731,3.18475302 1.70827231,3.37844189 1.84798231,3.52450235 C1.98769232,3.67056281 2.24726715,3.81979849 2.62670682,3.9722094 C3.00614649,4.12462032 3.31811257,4.26829935 3.56260508,4.40324652 C3.80709758,4.53819368 4.01348736,4.69060459 4.18177441,4.86047925 C4.35006146,5.03035392 4.47865816,5.22404278 4.56756453,5.44154586 C4.6564709,5.65904893 4.70092408,5.91227331 4.70092408,6.201219 C4.70092408,6.74100764 4.53263703,7.17918902 4.19606293,7.51576312 C3.85948883,7.85233721 3.39590564,8.05078892 2.80531336,8.11111824 L2.80531336,9.0589236 L2.04802163,9.0589236 L2.04802163,8.11588108 C1.39710003,8.04602608 0.89303269,7.81502829 0.535819614,7.42288772 C0.178606538,7.03074714 0,6.50921605 0,5.85829444 L1.37646105,5.85829444 C1.37646105,6.2361465 1.46616122,6.52588599 1.64556157,6.72751293 C1.82496191,6.92913986 2.08294914,7.02995333 2.41952323,7.02995333 C2.69894324,7.02995333 2.91962154,6.9561293 3.08155813,6.80848123 C3.24349473,6.66083315 3.32446303,6.46158764 3.32446303,6.21074468 Z"></path>
                            </g>
                        </g>
                    </g>
                    <polygon fill="#FF5500" transform="translate(25.374680, 4.226787) rotate(-315.000000) translate(-25.374680, -4.226787) " points="25.3822282 5.55976558 22.4195481 7.18191897 24.0417015 4.21923886 22.3858905 1.23799722 25.3671322 2.89380819 28.3298123 1.2716548 26.7076589 4.2343349 28.3634699 7.21557655"></polygon>
                    <polygon fill="#FFC300" transform="translate(38.148384, 8.595838) rotate(-315.000000) translate(-38.148384, -8.595838) " points="38.1543543 9.65020304 36.2238967 10.5203256 37.0940193 8.58986797 36.2019777 6.64943204 38.1424136 7.54147363 40.0728712 6.67135105 39.2027487 8.6018087 40.0947903 10.5422446"></polygon>
                </g>
            </g>
        </g>
    </g>
</svg>