<?xml version="1.0" encoding="UTF-8"?>
<svg width="20px" height="20px" viewBox="0 0 20 20" version="1.1" xmlns="http://www.w3.org/2000/svg" xmlns:xlink="http://www.w3.org/1999/xlink">
    <title>email</title>
    <g id="-1" stroke="none" stroke-width="1" fill="none" fill-rule="evenodd">
        <g id="" transform="translate(-40.000000, -254.000000)">
            <g id="" transform="translate(20.000000, 244.000000)">
                <g id="email" transform="translate(20.000000, 10.000000)">
                    <rect id="" fill-opacity="0" fill="#FFFFFF" x="0" y="0" width="20" height="20"></rect>
                    <path d="M17.5757576,3.63636364 L2.42424243,3.63636364 C1.58744735,3.63636364 0.909090909,4.31472008 0.909090909,5.15151516 L0.909090909,15 C0.909090909,15.8367951 1.58744736,16.5151515 2.42424243,16.5151515 L17.5757576,16.5151515 C18.4125526,16.5151515 19.0909091,15.8367951 19.0909091,15 L19.0909091,5.15151516 C19.0909091,4.31472008 18.4125526,3.63636364 17.5757576,3.63636364 L17.5757576,3.63636364 Z M17.0873232,7.46515153 L10.8152525,10.7238889 C10.3270374,10.9770181 9.74653056,10.9783353 9.25717172,10.7274242 L2.91121212,7.46681819 C2.53906146,7.27558262 2.3924008,6.81886784 2.58363637,6.44671718 C2.77487194,6.07456651 3.23158672,5.92790585 3.60373738,6.11914142 L9.94959596,9.37974747 C10.0021082,9.40664724 10.0643861,9.40649672 10.1167677,9.37934345 L16.3887374,6.12075758 C16.6292236,5.99293152 16.9198163,6.00402853 17.1498536,6.14982271 C17.379891,6.29561689 17.5139675,6.55366877 17.5010248,6.82570849 C17.4880822,7.09774822 17.3301124,7.34190561 17.0872727,7.46520203 L17.0873232,7.46515153 Z" id="" fill="#333333" fill-rule="nonzero"></path>
                </g>
            </g>
        </g>
    </g>
</svg>