<?xml version="1.0" encoding="UTF-8"?>
<svg width="16px" height="16px" viewBox="0 0 16 16" version="1.1" xmlns="http://www.w3.org/2000/svg"
    xmlns:xlink="http://www.w3.org/1999/xlink">
    <title>icon_tips</title>
    <g stroke="none" stroke-width="1" fill="none" fill-rule="evenodd">
        <g id="Inject_PopUp" transform="translate(-341.000000, -134.000000)" fill="#C6C6C6"
            fill-rule="nonzero">
            <g id="icon_tips" transform="translate(341.000000, 134.000000)">
                <rect opacity="0" x="0" y="0" width="16" height="16"></rect>
                <path
                    d="M7.9995625,1.04515625 C4.158125,1.04515625 1.04471875,4.1591875 1.04471875,8 C1.04471875,11.840625 4.15898437,14.9548438 7.9995625,14.9548438 C11.8401875,14.9548438 14.9552812,11.840625 14.9552812,8 C14.9552812,4.15920312 11.8401875,1.04515625 7.9995625,1.04515625 L7.9995625,1.04515625 Z M7.1883125,4.1570625 C7.40101562,3.938625 7.69348437,3.81573437 7.99659375,3.82020312 C8.30140625,3.81720312 8.59684375,3.938625 8.80828125,4.15707812 C9.02395313,4.36951562 9.14321875,4.66159375 9.14023438,4.96301562 C9.14321875,5.26739062 9.0209375,5.56009375 8.80403125,5.7704375 C8.5930625,5.98140625 8.30565625,6.10132813 8.00846875,6.10132813 L7.99660937,6.10132813 C7.6951875,6.10434375 7.40229687,5.98440625 7.19171875,5.76895312 C6.97523437,5.55859375 6.85551562,5.265875 6.85803125,4.96301562 C6.8555,4.66159375 6.97521875,4.36951563 7.1883125,4.15707812 L7.1883125,4.1570625 Z M9.659875,11.6692969 L9.659875,12.1810781 L6.33757813,12.1810781 L6.33757813,11.3604844 L6.6483125,11.3494375 C6.7951875,11.3428438 6.857625,11.3105781 6.892,11.2811094 L6.90982813,11.2032031 C6.9238125,11.1229531 6.93360937,10.9958125 6.93273438,10.8311094 L6.93273438,7.93165625 C6.936125,7.67654687 6.89879688,7.50204687 6.88265625,7.46384375 L6.8453125,7.4455625 C6.8054375,7.43157812 6.73490625,7.41692187 6.63770313,7.41096875 L6.33757813,7.39251562 L6.33757813,6.57553125 L9.05915625,6.57553125 L9.05915625,10.8310938 C9.0549375,11.0855781 9.09354688,11.259 9.10884375,11.2987031 L9.10928125,11.2987031 L9.1483125,11.3156563 C9.18865625,11.3296875 9.25995313,11.3443438 9.3593125,11.3494219 L9.6594375,11.3679063 L9.6594375,11.6692813 L9.659875,11.6692813 L9.659875,11.6692969 Z"
                ></path>
            </g>
        </g>
    </g>
</svg>