<?xml version="1.0" encoding="UTF-8"?>
<svg width="30px" height="30px" viewBox="0 0 30 30" version="1.1" xmlns="http://www.w3.org/2000/svg" xmlns:xlink="http://www.w3.org/1999/xlink">
    <defs>
        <polygon id="path-1" points="0 0 21 0 21 21 0 21"></polygon>
    </defs>
    <g stroke="none" stroke-width="1" fill="none" fill-rule="evenodd">
        <g transform="translate(-1131.000000, -4348.000000)">
            <g transform="translate(1107.000000, 4261.000000)">
                <g transform="translate(24.000000, 87.000000)">
                    <circle fill="#EA5A4F" cx="15" cy="15" r="15"></circle>
                    <g transform="translate(4.500000, 4.500000)">
                        <mask id="mask-2" fill="white">
                            <use xlink:href="#path-1"></use>
                        </mask>
                        <g id="Clip-3"></g>
                        <path d="M17.021088,18.187375 C14.9190497,18.6823698 9.17656345,21.3710526 5.30564907,19.0876618 C0.396529468,16.2140849 0.383623348,7.80174596 6.51679632,2.62659756 C7.9077074,1.40677668 9.73300163,0.706305859 11.6440294,0.65931051 C13.2134137,0.541479107 14.6423056,1.50179647 15.0151081,2.92486366 C15.3080771,4.354963 14.8565472,5.82965646 13.7973234,6.90145915 C13.352431,7.32939125 12.8428236,7.69489157 12.2849105,7.98646855 C12.0832062,8.10207025 11.8682271,8.19606094 11.6440294,8.26672548 C10.8108471,8.55881701 10.0097457,8.52897325 9.72138612,7.67053631 C9.4564419,6.53613034 10.1244258,5.39229099 11.2915079,4.98168199 C11.6761103,4.84464081 13.028303,4.42133964 12.5091082,4.3139707 C11.1569155,4.01587612 9.00362143,5.07704482 8.49087969,6.69872738 C7.97813794,8.32040995 9.13176077,9.29221888 10.8237532,9.08348406 C11.6724228,8.97354239 12.4891959,8.70803582 13.2270573,8.3025723 C15.5756025,7.35597621 18.0432528,6.68877946 20.5715619,6.31710457 C20.9561643,6.25758856 21.212443,5.58987727 20.75741,5.64939328 C18.9612467,5.91387076 17.1908957,6.31264516 15.463688,6.84177162 C15.3755576,6.86681294 15.281343,6.82547761 15.2457589,6.7464088 C15.2300872,6.70181467 15.2300872,6.65379023 15.2457589,6.60936762 C15.4596318,6.34300347 15.6443737,6.05725802 15.7970347,5.75676222 C16.5468803,4.34381447 16.6814727,2.49555943 15.5278499,1.23749051 C14.1946476,-0.223138649 11.7721687,-0.175457237 9.97121174,0.289522291 C7.57712633,0.963408151 5.42438538,2.22850922 3.74179598,3.95035706 C0.216950016,7.55133278 -1.70569324,14.1570951 2.03062873,18.294744 C3.61623786,19.9562182 5.87259652,20.9300853 8.2600445,20.9835983 C11.4131942,21.1983361 15.3868044,19.2427122 16.5212524,18.7298797 C17.226111,18.4021129 17.7901085,18.014487 17.021088,18.187375" id="Fill-2" fill="#FFFFFF" mask="url(#mask-2)"></path>
                    </g>
                </g>
            </g>
        </g>
    </g>
</svg>