<?xml version="1.0" encoding="UTF-8"?>
<svg width="12px" height="12px" viewBox="0 0 12 12" version="1.1" xmlns="http://www.w3.org/2000/svg" xmlns:xlink="http://www.w3.org/1999/xlink">
    <title>icon_star</title>
    <g stroke="none" stroke-width="1" fill="none" fill-rule="evenodd">
        <g transform="translate(-452.000000, -1163.000000)" fill="#FFC900">
            <g transform="translate(93.000000, 973.000000)">
                <g transform="translate(249.000000, 180.000000)">
                    <g transform="translate(12.000000, 7.000000)">
                        <g id="icon_star-2" transform="translate(97.999780, 2.999801)">
                            <path d="M5.65116231,11.1513081 L3.33381802,11.9417003 C2.74969405,12.1417768 2.11943212,11.811921 1.92704553,11.2071853 C1.88961285,11.0909247 1.87133177,10.9674541 1.87133177,10.8439834 L1.87568441,8.28174287 C1.87655493,8.03840662 1.80256009,7.80047785 1.66414622,7.60220387 L0.212106293,5.52663579 C-0.149162633,5.01112344 -0.0377351085,4.28922591 0.461077167,3.91611033 C0.555094141,3.84491194 0.659557445,3.79083722 0.770114441,3.75298492 L3.10486928,2.96709896 C3.32946539,2.8904931 3.52620461,2.74268886 3.66461849,2.54261239 L5.09489522,0.480562997 C5.45355257,-0.0367518416 6.14997459,-0.154814984 6.64965739,0.216498106 C6.74802701,0.28949898 6.83420923,0.378722271 6.90559249,0.480562997 L8.3349987,2.54261239 C8.4742831,2.74178762 8.6701518,2.8904931 8.89561843,2.96619771 L11.2303733,3.75298492 C11.8162383,3.95035765 12.1357219,4.6010568 11.9450764,5.20669369 C11.9093847,5.32115185 11.8562826,5.42930129 11.7883814,5.52663579 L10.335471,7.60220387 C10.1979276,7.80047785 10.1239328,8.03840662 10.1239328,8.28174287 L10.1291559,10.8439834 C10.1300265,11.4811639 9.63295525,11.9984788 9.01749228,11.99938 C8.89823001,12.0001992 8.77896774,11.9804538 8.66579916,11.9417003 L6.3493254,11.1513081 C6.12298824,11.073801 5.87749947,11.073801 5.65116231,11.1513081" id="icon_star"></path>
                        </g>
                    </g>
                </g>
            </g>
        </g>
    </g>
</svg>