<?xml version="1.0" encoding="UTF-8"?>
<svg width="19px" height="19px" viewBox="0 0 19 19" version="1.1" xmlns="http://www.w3.org/2000/svg" xmlns:xlink="http://www.w3.org/1999/xlink">
    <g stroke="none" stroke-width="1" fill="none" fill-rule="evenodd">
        <g  transform="translate(-1455.000000, -883.000000)">
            <g transform="translate(1455.600000, 883.900000)">
                <circle fill="#FA6202" cx="9" cy="9" r="9"></circle>
                <path d="M10.9659375,5.2524135 C10.2540234,5.2524135 9.54316406,5.52557756 9,6.07296037 C8.45683594,5.52557756 7.74597656,5.2524135 7.0340625,5.2524135 C6.32214844,5.2524135 5.61128906,5.52557756 5.068125,6.07296037 C3.98285156,7.16667131 3.98285156,8.939601 5.068125,10.0343666 L8.12566406,13.1151088 C8.3671875,13.3576869 8.68359375,13.478976 9,13.478976 C9.31640625,13.478976 9.6328125,13.3576869 9.87328125,13.1140541 L12.9308203,10.0333119 C14.0160938,8.939601 14.0160938,7.16667131 12.9308203,6.07190569 C12.3887109,5.52557756 11.6778516,5.2524135 10.9659375,5.2524135 Z" fill="#FFFFFF" fill-rule="nonzero"></path>
            </g>
        </g>
    </g>
</svg>